<svg width="743" height="244" viewBox="0 0 743 244" fill="none" xmlns="http://www.w3.org/2000/svg">
<path fill-rule="evenodd" clip-rule="evenodd" d="M171.924 115.542C172.033 115.541 172.144 115.54 172.258 115.539C172.265 115.539 172.272 115.539 172.28 115.538C172.158 115.54 172.04 115.541 171.924 115.542Z" fill="white"/>
<path d="M139.921 178.739V173.074H104.27C102.67 173.074 101.373 174.371 101.373 175.97V175.97C101.373 177.57 102.67 178.866 104.27 178.866H139.921V178.739Z" fill="white"/>
<path fill-rule="evenodd" clip-rule="evenodd" d="M139.921 173.074V178.739V178.866H104.27C102.67 178.866 101.373 177.57 101.373 175.97V175.97C101.373 174.371 102.67 173.074 104.27 173.074H139.921Z" fill="white"/>
<path fill-rule="evenodd" clip-rule="evenodd" d="M32.2405 26.9565C33.2703 25.9267 33.8772 25.5773 35.2563 25.1912C36.0838 24.9705 46.4183 24.9521 107.671 24.9705L177.886 25.0067C178.693 25.0071 179.489 25.1896 180.215 25.5405V25.5405C181.668 26.2577 182.955 27.5817 183.672 29.108V29.108C184.06 29.9191 184.261 30.8065 184.262 31.7054L184.316 118.606C184.334 177.745 184.297 207.203 184.169 207.884C183.764 210.127 182.22 212.15 180.178 213.161V213.161C179.476 213.5 178.707 213.676 177.927 213.676H107.12H36.3284C35.5394 213.676 34.7618 213.487 34.061 213.125V213.125C32.7554 212.481 31.3027 210.936 30.6407 209.539V209.539C30.3259 208.873 30.1622 208.145 30.1614 207.409L30.0707 121.181C30.0155 73.1307 30.0155 33.0432 30.0707 32.087C30.1994 29.9171 30.8614 28.3357 32.2405 26.9565ZM178.431 51.9836L178.398 64.8997C178.386 69.5629 174.606 73.3387 169.943 73.3457L166.166 73.3514L154.565 73.3864C154.189 73.3875 153.843 73.1837 153.662 72.8549V72.8549C152.706 71.1631 151.713 69.8575 150.131 68.2761C148.255 66.4188 146.527 65.2603 144.283 64.3593L144.11 64.2899L143.887 64.2015L143.703 64.1286C142.52 63.6597 142.093 63.4909 141.944 63.1864C141.861 63.015 141.864 62.8006 141.871 62.4656C141.873 62.3664 141.875 62.2566 141.875 62.1343C141.875 58.7139 139.999 54.6684 137.057 51.7446C134.832 49.5379 131.558 47.5335 128.69 46.6325C125.84 45.7314 123.982 45.474 121.04 45.5659C116.7 45.6947 114.052 46.5773 111.882 48.6001C110.264 50.108 109.363 51.8549 109.179 53.7857C109.106 54.5397 109.087 73.2043 109.142 95.2525L109.232 134.072C109.233 134.911 109.377 135.744 109.657 136.535V136.535C110.154 137.914 111.754 140.415 112.692 141.261C115.321 143.652 118.282 144.81 121.739 144.81C123.78 144.81 125.398 144.498 127.127 143.762L127.585 143.576C128.037 143.392 128.549 143.434 128.966 143.689V143.689C130.124 144.369 131.614 144.994 133.048 145.417C135.199 146.024 138.804 145.969 141.139 145.288C145.626 143.983 148.844 141.372 150.885 137.326L151.425 136.265C151.72 135.686 152.282 135.292 152.926 135.211V135.211C155.556 134.88 158.994 133.244 161.164 131.294C163.831 128.886 165.596 125.759 166.332 122.229V122.229C166.471 121.564 167.057 121.089 167.736 121.089H172.51V121.089C175.801 121.089 178.468 123.756 178.468 127.047V173.074H172.055C170.456 173.074 169.159 174.371 169.159 175.97V175.97C169.159 177.57 170.456 178.866 172.055 178.866H173.814C176.384 178.866 178.468 180.95 178.468 183.521V204.04V204.04C178.468 206.264 176.665 208.068 174.44 208.068H174.233H39.8944H39.2782C37.3414 208.068 35.7712 206.498 35.7712 204.561V204.561V178.739H44.7809C46.3453 178.739 47.6136 177.471 47.6136 175.907V175.907C47.6136 174.342 46.3453 173.074 44.7809 173.074H41.6924C38.4222 173.074 35.7712 170.423 35.7712 167.153V126.734C35.7712 123.622 38.3047 121.105 41.4166 121.125V121.125L45.4112 121.165C46.3737 121.174 47.2095 121.83 47.4481 122.762V122.762C48.6434 127.562 52.2292 131.938 56.5873 133.961C57.8745 134.549 60.3018 135.248 61.0926 135.248C61.7913 135.248 61.9017 135.358 62.5085 136.627C64.0899 139.845 66.2966 142.291 68.963 143.799C73.7808 146.502 80.0514 146.576 84.4831 143.983C85.3474 143.486 85.6784 143.358 85.8623 143.505C85.991 143.615 86.8001 143.928 87.646 144.222C89.0619 144.682 89.4297 144.718 91.949 144.7C94.4682 144.7 94.8176 144.663 96.0864 144.203C100.463 142.604 103.479 139.367 104.453 135.156C104.692 134.09 104.729 129.18 104.729 93.5975V54.503C104.729 53.6755 104.586 52.8543 104.306 52.0756V52.0756C103.368 49.5195 100.959 47.2577 98.1092 46.2647C95.9945 45.5476 91.0847 45.2166 89.0987 45.6763C88.8515 45.7356 88.4661 45.8215 88.0512 45.914L88.045 45.9154L88.0434 45.9157C87.6888 45.9947 87.3131 46.0784 86.984 46.1544C82.8833 47.1106 79.5549 48.9495 76.6495 51.9101C73.836 54.7787 72.2178 58.1991 71.9052 61.9871L71.845 62.6829C71.8034 63.1653 71.4807 63.5776 71.0225 63.7341V63.7341C69.6617 64.157 67.3448 65.2787 66.1127 66.1062C64.2922 67.3383 62.1407 69.6369 60.9455 71.6413V71.6413C60.3064 72.7139 59.1522 73.3734 57.9037 73.3793L48.2572 73.425C41.8395 73.4434 36.4148 73.425 36.1941 73.3698V73.3698C35.9473 73.3161 35.7712 73.0977 35.7712 72.845V51.9468V39.0838C35.7712 34.4071 39.5624 30.6159 44.2391 30.6159H107.12H169.986C174.668 30.6159 178.462 34.416 178.454 39.0984L178.431 51.9836ZM93.6959 51.3952C96.1232 51.7814 97.815 52.7008 98.4586 54.0248C98.8448 54.8155 98.8448 55.0362 98.808 61.6194L98.8045 62.0418C98.7758 65.579 95.9272 68.4457 92.3903 68.4968V68.4968C86.5243 68.5887 85.991 68.6255 85.4393 68.9565C83.6556 70.0047 83.4717 72.3952 85.1083 73.3698C85.66 73.7192 86.1197 73.7376 92.28 73.7927L96.4175 73.8275C97.7613 73.8388 98.8448 74.9314 98.8448 76.2752V76.2752C98.8448 77.6176 98.7896 78.8864 98.7344 79.1071C98.6241 79.4933 98.5505 79.5117 94.836 79.5668C91.3237 79.622 90.9743 79.6588 90.2756 80.0265C88.6574 80.8908 87.6276 82.1229 87.0575 83.8882C86.7817 84.6973 86.7081 85.4696 86.7081 87.474C86.7081 88.8899 86.6162 90.1955 86.5243 90.3978C86.3404 90.7288 86.1013 90.7472 83.3614 90.7472C79.9962 90.7472 79.2055 90.9127 78.4332 91.7954C77.4034 92.9723 77.6057 94.664 78.8745 95.5835C79.4078 95.9696 79.6836 95.988 83.3982 96.0432C89.5768 96.1535 90.5146 95.9696 91.5628 94.5537C91.9122 94.0756 91.949 93.7262 92.0409 90.0117C92.1145 86.4626 92.1696 85.9477 92.4638 85.6535C92.7397 85.3777 93.1994 85.3225 95.6635 85.2674C97.9069 85.2122 98.5689 85.249 98.6793 85.4512C98.8631 85.7271 98.8999 89.8278 98.7344 90.2691C98.6609 90.4714 98.385 90.5633 97.8334 90.5633C96.399 90.5633 95.1118 91.8137 95.1118 93.1929C95.1118 94.6272 96.16 95.6754 97.815 95.8777V95.8777C98.3498 95.9406 98.7528 96.3938 98.7528 96.9323V98.9302V98.9302C98.7528 100.569 97.4495 101.91 95.8118 101.956L95.5348 101.964C92.1328 102.075 91.6547 102.185 90.8456 103.068C90.5514 103.399 90.4779 103.73 90.4779 104.741C90.4779 105.918 90.5146 106.047 91.0847 106.598V106.598C91.4619 106.987 91.9765 107.213 92.5181 107.227L95.2222 107.297L96.1235 107.321C97.5952 107.359 98.7771 108.547 98.808 110.019V110.019C98.8631 112.685 98.7344 113.365 98.1828 113.365C97.7414 113.365 96.8404 114.064 96.5462 114.653C95.7738 116.142 96.8955 118.514 98.3483 118.514C98.4954 118.514 98.6793 118.643 98.7344 118.808C98.8815 119.176 98.8815 122.376 98.7344 123.608V123.608C98.6608 124.166 98.1852 124.583 97.6226 124.583H95.829C91.9306 124.583 91.2318 124.693 90.4779 125.392C89.6504 126.182 89.4849 127.102 89.9446 128.224C90.1652 128.757 90.5514 129.235 90.9192 129.492C91.4892 129.879 91.7467 129.915 94.3211 129.934C95.8474 129.934 97.4656 130.007 97.9253 130.062V130.062C98.4004 130.136 98.7493 130.548 98.7445 131.029L98.7344 132.048C98.716 133.611 98.6425 134.053 98.2563 134.917C97.3369 136.921 95.5715 138.264 93.181 138.742C90.7169 139.238 87.7931 138.245 85.8439 136.223C83.343 133.648 82.3868 130.577 83.4349 128.426C84.5934 126.017 83.6004 123.847 81.3202 123.847C79.5365 123.847 78.5987 124.711 77.7896 127.102V127.102C77.5465 127.853 76.861 128.374 76.0719 128.406L75.1232 128.444C72.8982 128.536 72.8614 128.555 72.4385 129.088C72.181 129.4 71.8868 129.952 71.7765 130.338C71.4822 131.294 71.8868 132.379 72.8062 133.133C73.4682 133.667 73.5786 133.685 75.6013 133.74L75.9546 133.753C77.0241 133.79 77.9819 134.425 78.4332 135.395V135.395C78.8377 136.259 79.4997 137.4 79.9043 137.914C80.3089 138.448 80.6398 138.963 80.6398 139.055C80.6398 139.441 78.2493 140.029 76.7046 140.029C74.0383 140.029 72.0707 139.183 70.0663 137.179C68.5584 135.671 67.7677 134.237 67.1976 131.938V131.938C66.9502 130.881 66.1945 130.23 65.1131 130.131C64.9958 130.12 64.875 130.11 64.7519 130.099C58.9595 129.584 55.2265 127.028 53.5164 122.376C53.0934 121.217 53.0015 120.703 53.0015 119.066C52.9831 116.05 53.8474 113.917 56.0173 111.618L56.278 111.346C56.8038 110.796 57.676 110.778 58.2239 111.306V111.306C59.5111 112.575 60.4122 112.998 61.8281 112.998C62.7843 112.998 63.0418 112.924 63.5567 112.501C64.3106 111.858 64.6416 111.048 64.6416 109.798C64.6416 109.764 64.6418 109.732 64.642 109.7L64.6428 109.608C64.6452 109.354 64.6469 109.177 64.5967 109.015C64.4791 108.637 64.0761 108.347 62.7281 107.378C62.5754 107.268 62.4106 107.15 62.2327 107.021C60.1731 105.532 58.4814 102.792 58.0952 100.309C57.7642 98.1947 58.132 95.8409 59.0514 94.002C59.6031 92.9355 60.8167 91.2989 61.681 90.4898V90.4898C61.9864 90.1945 62.4727 90.2008 62.7705 90.5037L63.2808 91.023L63.7 91.4572C64.0781 91.8488 64.2196 92.4117 64.0715 92.9355V92.9355C63.7406 94.0388 63.7589 97.3672 64.0715 98.6544C64.5497 100.585 66.0759 102.939 67.2344 103.527C68.3377 104.116 69.9376 103.601 70.7099 102.406C71.2432 101.615 71.1696 101.247 70.1582 99.1509C69.3675 97.4959 69.2388 97.1097 69.2388 96.1167C69.2388 93.9101 70.3237 91.9792 72.273 90.7104C73.7073 89.7726 74.1118 89.1106 73.9831 87.9337C73.8544 86.7568 73.2843 86.0581 72.181 85.6903C71.0225 85.3041 70.0479 85.5616 68.8159 86.573L68.489 86.8397C68.1645 87.1047 67.691 87.0767 67.3999 86.7752V86.7752C65.8001 85.157 64.8255 82.5642 64.8255 79.9714C64.8255 75.7603 67.216 72.0274 71.1328 70.0966C71.8684 69.7288 72.8614 69.3243 73.3395 69.1955L73.4727 69.1622C73.9288 69.0482 74.4093 69.2124 74.7003 69.5817V69.5817C75.5278 70.6299 76.061 70.8505 77.3483 70.6667C77.9551 70.5931 78.5435 70.4828 78.6355 70.4276C78.7274 70.354 79.3342 69.5081 79.9962 68.4968C82.5707 64.5983 85.6968 62.8146 89.9814 62.7963C92.0777 62.7963 93.1442 61.9871 93.1442 60.4057C93.1442 59.4495 92.6845 58.5852 91.8018 57.9416C91.1582 57.4635 89.4481 57.3532 87.1863 57.629C83.7292 58.0519 80.7318 59.5047 78.6722 61.7665C77.716 62.8146 77.6976 62.8146 77.6976 62.2814C77.6976 61.1964 78.6906 58.7875 79.7388 57.3716C82.0926 54.1535 85.66 52.1307 90.1836 51.4871C92.2432 51.1745 92.2983 51.1745 93.6959 51.3952ZM125.784 51.9101C126.502 52.1124 127.531 52.4434 128.083 52.6824C130.529 53.657 133.728 56.4153 134.832 58.4749C135.512 59.7989 136.174 61.601 136.174 62.2078C136.174 62.594 136.009 62.4836 134.758 61.3251C133.213 59.8908 130.713 58.53 128.451 57.9232C126.851 57.4819 123.136 57.4635 122.18 57.868C121.132 58.3278 120.544 59.2288 120.544 60.3873C120.544 61.1964 120.635 61.4171 121.169 62.0055V62.0055C121.569 62.4416 122.125 62.7028 122.717 62.7331L124.313 62.8146C126.796 62.9434 126.888 62.9617 128.359 63.6973C130.308 64.6535 132.165 66.3637 133.544 68.46C134.114 69.3427 134.721 70.1518 134.868 70.2805C135.034 70.3908 135.677 70.5379 136.321 70.6115C137.608 70.7402 138.05 70.5747 138.969 69.5265V69.5265C139.261 69.1894 139.721 69.05 140.151 69.1679L140.587 69.2875C143.989 70.2437 146.858 72.6526 148.384 75.8523C148.936 77.0292 148.954 77.1027 148.954 79.7139C148.936 82.1964 148.917 82.4539 148.439 83.5756C147.906 84.826 146.637 86.7017 146.067 87.0511C145.773 87.2349 145.644 87.1798 145.258 86.7201C144.835 86.2052 143.143 85.4145 142.518 85.4145C142.353 85.4145 141.875 85.58 141.415 85.8006C140.367 86.2971 139.852 87.1062 139.852 88.2647C139.852 89.2209 140.072 89.4968 142.169 91.2253C144.541 93.1929 145.074 96.742 143.438 99.4819C143.088 100.052 142.757 100.787 142.702 101.1C142.5 102.277 143.824 103.803 145.037 103.803C146.361 103.803 147.961 102.387 148.881 100.383C149.966 98.0108 150.223 95.6938 149.69 93.1561V93.1561C149.518 92.3543 149.759 91.5167 150.333 90.9311V90.9311C150.83 90.4346 151.308 90.0117 151.418 90.0117C151.676 90.0117 153.423 91.8873 154.103 92.9171C154.434 93.3952 154.912 94.3514 155.206 95.0686C155.648 96.1719 155.721 96.6316 155.74 98.1947C155.74 100.291 155.482 101.541 154.692 103.233C154.011 104.686 152.209 106.617 150.517 107.738C149.101 108.676 149.009 108.897 149.322 110.515C149.506 111.398 149.671 111.71 150.297 112.299C150.977 112.924 151.161 112.998 151.988 112.998C153.147 112.998 153.772 112.685 155.262 111.379V111.379C155.915 110.809 156.898 110.839 157.515 111.448L157.707 111.637C160.3 114.193 161.348 117.834 160.521 121.401C159.399 126.274 154.949 129.639 148.954 130.191C148.145 130.265 147.354 130.393 147.189 130.485C147.023 130.577 146.821 130.945 146.748 131.331C146.527 132.527 145.755 134.531 145.166 135.45C143.897 137.436 141.415 139.22 139.061 139.845C137.498 140.268 133.361 139.772 132.956 139.11C132.919 139.036 133.048 138.779 133.25 138.54C133.967 137.712 134.685 136.59 135.163 135.506C135.31 135.192 135.457 134.868 135.573 134.611L135.574 134.61C135.675 134.386 135.754 134.213 135.788 134.145C135.898 133.942 136.395 133.851 137.755 133.777C139.705 133.667 140.017 133.556 140.826 132.71C141.838 131.644 141.819 130.081 140.753 129.069C140.238 128.573 140.091 128.536 138.509 128.481L138.505 128.481C136.082 128.407 136.064 128.407 135.825 127.414C135.218 124.987 134.096 123.847 132.331 123.847C131.154 123.847 130.455 124.215 129.903 125.116C129.352 126.035 129.444 127.194 130.198 128.72L130.238 128.8C130.64 129.593 130.756 130.5 130.565 131.368V131.368C130.032 133.887 128.69 135.855 126.612 137.179C124.975 138.209 124.185 138.521 122.566 138.724C120.121 139.055 118.282 138.356 116.535 136.443C115.229 135.009 114.806 133.832 114.88 131.681V131.681C114.911 130.744 115.672 129.996 116.609 129.981L118.392 129.952C122.18 129.897 122.603 129.787 123.32 128.683C123.743 128.058 123.78 126.624 123.412 125.888C122.842 124.785 122.456 124.675 118.521 124.583L117.509 124.557C116.068 124.52 114.911 123.357 114.88 121.916V121.916C114.861 120.5 114.88 119.158 114.935 118.937C114.99 118.698 115.266 118.459 115.67 118.33C116.7 117.981 117.234 117.209 117.234 115.995C117.234 114.671 116.774 113.899 115.67 113.384V113.384C115.157 113.149 114.832 112.632 114.843 112.068L114.88 110.184V110.184C114.911 108.62 116.166 107.358 117.73 107.318L118.558 107.297L121.367 107.226C121.901 107.213 122.409 106.995 122.787 106.617V106.617C123.283 106.12 123.375 105.863 123.431 104.962C123.523 103.656 123.118 102.884 122.033 102.332C121.371 102.001 120.948 101.964 118.061 101.964H117.748C116.144 101.964 114.843 100.664 114.843 99.0589V99.0589C114.843 95.9512 114.917 95.7122 115.762 95.7122C116.443 95.7122 117.491 94.7744 117.785 93.8917C118.263 92.4022 117.27 90.784 115.726 90.5817V90.5817C115.272 90.5185 114.935 90.1307 114.935 89.673V87.8969V87.8969C114.935 86.4672 116.079 85.3005 117.509 85.273L117.804 85.2674C118.065 85.2626 118.309 85.2566 118.535 85.2511L118.537 85.251C119.931 85.217 120.683 85.1986 121.094 85.5636C121.576 85.9903 121.593 86.9413 121.629 89.0042C121.634 89.2985 121.639 89.6153 121.647 89.9565C121.739 93.671 121.776 94.0204 122.143 94.6089C122.934 95.8961 123.265 95.9696 127.862 96.0432C130.124 96.08 132.607 96.0616 133.379 95.988C134.721 95.8593 134.832 95.8225 135.494 95.1421C136.082 94.4985 136.174 94.2962 136.174 93.5239C136.174 92.4757 135.659 91.5931 134.703 91.0414C134.096 90.6736 133.82 90.6553 130.621 90.7104L127.697 90.7726C127.401 90.7789 127.155 90.5464 127.145 90.2507V90.2507C127.127 89.9749 127.127 88.9819 127.145 88.0808C127.163 84.6054 126.465 82.4355 124.828 81.0195L124.825 81.0171C123.283 79.6587 123.263 79.6403 118.889 79.53L117.748 79.5035C116.175 79.4669 114.911 78.1976 114.88 76.6246V76.6246V76.6246C114.849 75.0899 116.085 73.8295 117.62 73.8295H120.893C124.46 73.8295 127.329 73.756 127.862 73.6272C130.308 73.1124 130.51 70.1701 128.175 68.9013C127.697 68.6255 126.722 68.5703 121.279 68.4968V68.4968C117.752 68.4457 114.912 65.5871 114.884 62.0602L114.88 61.5458L114.875 60.8072C114.837 55.6142 114.828 54.3151 115.457 53.5238C115.667 53.2598 115.948 53.0522 116.323 52.7755C116.379 52.7339 116.437 52.6908 116.498 52.6456C117.105 52.2043 118.355 51.7262 119.44 51.5055C120.452 51.3033 124.516 51.5791 125.784 51.9101ZM52.5602 78.96L57.3412 78.9738C58.2256 78.9763 58.9411 79.6939 58.9411 80.5782V80.5782C58.9411 81.4793 59.033 82.7665 59.125 83.4469V83.4469C59.2406 84.2331 58.9756 85.0276 58.4112 85.587L57.2309 86.7568C54.3623 89.6071 53.0567 91.8138 52.4314 94.9582C51.7878 98.0843 51.9349 101.045 52.8728 103.858C53.1854 104.741 53.4244 105.569 53.4244 105.679C53.4244 105.808 52.8176 106.488 52.1004 107.205C49.8754 109.375 48.4043 111.747 47.6136 114.432V114.432C47.4062 115.109 46.7794 115.569 46.0718 115.564L41.5637 115.535V115.535C38.4037 115.505 35.8554 112.939 35.8458 109.779L35.808 97.3672C35.7896 87.4004 35.808 79.1623 35.8448 79.0336C35.9183 78.8681 37.2423 78.8313 41.0488 78.8864C43.2735 78.9155 46.9706 78.9331 50.1659 78.9483H50.1668L50.1727 78.9483L50.1765 78.9483L50.1924 78.9484L50.2156 78.9485C51.043 78.9525 51.836 78.9562 52.5602 78.96ZM172.639 115.535C175.816 115.505 178.376 112.92 178.376 109.743V97.1833V87.3544C178.376 82.6777 174.585 78.8864 169.908 78.8864H166.736C161.814 78.8864 157.573 78.9081 155.839 78.9348C155.281 78.9433 154.953 79.236 154.938 79.7935C154.933 79.9625 154.931 80.1475 154.931 80.3391C154.912 81.7367 154.673 83.833 154.471 84.3479C154.379 84.587 154.581 84.8812 155.243 85.4512C158.038 87.8969 159.675 90.1036 160.705 92.8251C161.551 95.0502 161.734 96.1167 161.753 98.4521C161.753 100.935 161.238 103.399 160.337 105.127C160.254 105.288 160.196 105.4 160.193 105.514C160.186 105.777 160.477 106.048 161.44 106.948C163.665 109.026 165.21 111.398 166.074 114.064C166.096 114.132 166.107 114.185 166.118 114.24C166.126 114.281 166.134 114.322 166.148 114.371C166.29 114.888 166.675 115.342 167.201 115.444C167.901 115.579 169.17 115.568 171.618 115.545L171.924 115.542L172.258 115.539L172.28 115.538L172.302 115.538L172.639 115.535V115.535Z" fill="white"/>
<path fill-rule="evenodd" clip-rule="evenodd" d="M87.9225 172.003L87.8305 168.785L87.7386 165.585L86.9479 164.004C85.4216 160.915 82.9391 159.149 79.8866 158.929C79.0407 158.873 77.8638 158.929 77.2754 159.039C75.9514 159.278 74.0573 160.197 73.3769 160.915C73.1011 161.209 72.7885 161.448 72.6966 161.448C72.6046 161.448 72.1817 161.154 71.7771 160.786C71.3726 160.418 70.4899 159.848 69.8279 159.535C68.6878 159.002 68.4855 158.965 66.4995 158.965C64.5135 158.965 64.3113 159.002 63.1712 159.535C62.5092 159.848 61.6265 160.418 61.222 160.786C60.8174 161.154 60.4128 161.448 60.3393 161.448C60.2657 161.448 59.8796 161.172 59.475 160.823C55.6685 157.568 49.398 158.524 46.5845 162.772C46.2351 163.305 45.7202 164.317 45.4444 165.015C44.9847 166.192 44.9479 166.523 44.9111 169.116C44.8743 170.679 44.7824 172.003 44.6904 172.095V177.832C44.7456 177.887 44.8375 179.285 44.8927 180.958C45.0214 185.114 45.4995 186.549 47.4855 188.663C48.7727 190.024 49.9128 190.723 51.5127 191.146C54.3262 191.863 57.2132 191.164 59.475 189.197L60.0818 188.663L61.0381 189.436C61.5713 189.84 62.5276 190.447 63.1896 190.76C64.2745 191.275 64.5503 191.311 66.3157 191.311C68.5959 191.33 69.7911 190.944 71.299 189.711C71.5243 189.533 71.7463 189.354 71.9373 189.2L71.9374 189.2L71.9379 189.2C72.1987 188.99 72.4016 188.827 72.4759 188.774C72.6414 188.645 72.9356 188.81 73.4137 189.27C76.6502 192.359 82.3323 192.01 85.44 188.516C87.2789 186.457 87.8305 184.636 87.8305 180.627V177.814L87.9225 172.003ZM57.0293 166.817C56.6799 166.027 56.1099 165.365 55.4295 165.015C54.841 164.703 53.1309 164.684 52.616 164.979C51.8253 165.401 51.2185 166.155 50.961 167.038C50.7403 167.774 50.6852 169.373 50.6852 175.387C50.6852 180.425 50.7587 183.055 50.8875 183.533C51.5495 185.684 54.2894 186.438 56.0731 184.967L56.0886 184.954C57.3051 183.956 57.3051 183.956 57.3051 175.295C57.3051 168.675 57.2684 167.406 57.0293 166.817ZM67.989 165.052C68.6143 165.365 69.405 166.303 69.5889 166.928C69.6624 167.204 69.7176 171.028 69.7176 175.46V183.478L69.1659 184.268C68.4671 185.243 67.5845 185.721 66.4444 185.721C65.433 185.721 64.771 185.427 64.0906 184.673C63.2263 183.735 63.1896 183.404 63.1896 175.019C63.1896 167.461 63.2079 167.112 63.5573 166.413C64.3481 164.85 66.3892 164.225 67.989 165.052ZM81.7071 166.431C81.4312 165.88 81.0267 165.438 80.5486 165.181C79.1143 164.353 77.1834 164.721 76.3008 165.99C75.5284 167.093 75.51 167.387 75.6388 175.552C75.7401 182.387 75.7389 183.691 76.3803 184.458C76.5534 184.665 76.7733 184.832 77.0547 185.059C77.588 185.5 77.9374 185.629 78.7833 185.666C80.1256 185.758 80.9347 185.353 81.6703 184.158L82.222 183.275L82.1852 175.276L82.1484 167.259L81.7071 166.431Z" fill="white"/>
<path fill-rule="evenodd" clip-rule="evenodd" d="M99.1674 160.32C95.6706 157.907 87.2055 158.317 85.3068 163.147C84.4931 166.664 84.5318 166.561 84.4931 169.288C84.4563 170.851 84.3644 172.175 84.2725 172.267V178.005C84.3276 178.06 84.4196 179.457 84.4747 181.131C84.6035 185.287 85.0816 186.721 87.0676 188.836C88.3548 190.196 89.4949 190.895 91.0947 191.318C93.9082 192.035 96.7952 191.337 99.0571 189.369L99.6639 188.836C100.574 188.049 101.995 185.127 101.995 182.456V167.21C101.551 163.285 100.547 161.148 99.1674 160.32ZM96.6113 166.99C96.262 166.199 95.6919 165.537 95.0115 165.188C94.4231 164.875 92.7129 164.857 92.198 165.151C91.4073 165.574 90.8005 166.328 90.543 167.21C90.3224 167.946 90.2672 169.546 90.2672 175.559C90.2672 180.597 90.3408 183.227 90.4695 183.705C91.1315 185.857 93.8714 186.611 95.6551 185.14L95.6706 185.127C96.8872 184.128 96.8872 184.128 96.8872 175.467C96.8872 168.847 96.8504 167.578 96.6113 166.99Z" fill="white"/>
<path fill-rule="evenodd" clip-rule="evenodd" d="M170.415 172.175L170.323 168.957L170.231 165.757L169.441 164.176C167.914 161.087 165.432 159.321 162.379 159.101C161.533 159.046 160.357 159.101 159.768 159.211C158.444 159.45 156.55 160.37 155.87 161.087C155.594 161.381 155.281 161.62 155.189 161.62C155.097 161.62 154.674 161.326 154.27 160.958C153.865 160.59 152.983 160.02 152.321 159.708C151.181 159.174 150.978 159.137 148.992 159.137C147.006 159.137 146.804 159.174 145.664 159.708C145.002 160.02 144.119 160.59 143.715 160.958C142.748 161.837 140.258 164.595 139.913 167.431C139.775 170.043 139.913 181.835 139.913 181.835C139.96 183.969 140.264 185.257 141.361 187.627C141.913 188.455 144.05 190.422 145.682 190.932C146.583 191.213 148.395 191.48 148.808 191.483C151.089 191.502 152.284 191.116 153.792 189.884C154.017 189.705 154.24 189.526 154.431 189.372L154.431 189.371C154.692 189.162 154.894 188.999 154.969 188.946C155.134 188.817 155.428 188.983 155.906 189.442C159.143 192.532 164.825 192.182 167.933 188.688C169.772 186.629 170.323 184.808 170.323 180.799V177.986L170.415 172.175ZM152.082 167.1C151.898 166.475 151.107 165.537 150.482 165.224C148.882 164.397 146.841 165.022 146.05 166.585C145.701 167.284 145.682 167.633 145.682 175.191C145.682 183.576 145.719 183.907 146.583 184.845C147.264 185.599 147.926 185.893 148.937 185.893C150.077 185.893 150.96 185.415 151.659 184.44L152.21 183.65V175.632C152.21 171.201 152.155 167.376 152.082 167.1ZM164.2 166.603C163.924 166.052 163.519 165.61 163.041 165.353C161.607 164.525 159.676 164.893 158.794 166.162C158.021 167.265 158.003 167.56 158.132 175.724L158.141 176.353C158.233 182.641 158.252 183.888 158.873 184.63C159.027 184.814 159.217 184.966 159.455 185.157L159.457 185.159C159.487 185.182 159.517 185.206 159.547 185.231C160.081 185.673 160.43 185.801 161.276 185.838C162.618 185.93 163.428 185.525 164.163 184.33L164.715 183.447L164.678 175.448L164.641 167.431L164.2 166.603Z" fill="white"/>
<path d="M260.86 106.3C257.327 106.3 254.26 105.567 251.66 104.1C249.06 102.567 247.06 100.467 245.66 97.8C244.26 95.1333 243.56 92.1 243.56 88.7V51.7C243.56 46.7294 239.531 42.7 234.56 42.7H224.56C222.793 42.7 221.36 41.2673 221.36 39.5V39.5C221.36 37.7327 222.793 36.3 224.56 36.3H269.76C271.528 36.3 272.96 37.7327 272.96 39.5V39.5C272.96 41.2673 271.528 42.7 269.76 42.7H259.76C254.79 42.7 250.76 46.7294 250.76 51.7V89.7C250.76 92.6333 251.66 95.0667 253.46 97C255.327 98.9333 257.827 99.9 260.96 99.9H262.16C263.928 99.9 265.36 101.333 265.36 103.1V103.1C265.36 104.867 263.928 106.3 262.16 106.3H260.86Z" fill="white"/>
<path d="M287.192 106.3C285.203 106.3 283.592 104.688 283.592 102.7V40C283.592 38.0118 285.203 36.4 287.192 36.4V36.4C289.18 36.4 290.792 38.0118 290.792 40V58.5C290.792 63.4706 294.821 67.5 299.792 67.5H321.892C326.862 67.5 330.892 63.4706 330.892 58.5V40C330.892 38.0118 332.503 36.4 334.492 36.4V36.4C336.48 36.4 338.092 38.0118 338.092 40V102.7C338.092 104.688 336.48 106.3 334.492 106.3V106.3C332.503 106.3 330.892 104.688 330.892 102.7V82.9C330.892 77.9294 326.862 73.9 321.892 73.9H299.792C294.821 73.9 290.792 77.9294 290.792 82.9V102.7C290.792 104.688 289.18 106.3 287.192 106.3V106.3Z" fill="white"/>
<path d="M354.404 106.3C352.637 106.3 351.204 104.867 351.204 103.1V103.1C351.204 101.333 352.637 99.9 354.404 99.9H358.154C361.992 99.9 365.104 96.7884 365.104 92.95V49.65C365.104 45.8116 361.992 42.7 358.154 42.7H354.404C352.637 42.7 351.204 41.2673 351.204 39.5V39.5C351.204 37.7327 352.637 36.3 354.404 36.3H383.004C384.771 36.3 386.204 37.7327 386.204 39.5V39.5C386.204 41.2673 384.771 42.7 383.004 42.7H379.254C375.416 42.7 372.304 45.8116 372.304 49.65V92.95C372.304 96.7884 375.416 99.9 379.254 99.9H383.004C384.771 99.9 386.204 101.333 386.204 103.1V103.1C386.204 104.867 384.771 106.3 383.004 106.3H354.404Z" fill="white"/>
<path d="M482.699 106.3C480.711 106.3 479.099 104.688 479.099 102.7V39.9C479.099 37.9118 480.711 36.3 482.699 36.3V36.3C484.688 36.3 486.299 37.9118 486.299 39.9V60.1C486.299 65.0706 490.329 69.1 495.299 69.1H506.899C510.099 69.1 512.933 68.5333 515.399 67.4C517.933 66.2 519.933 64.5333 521.399 62.4C522.933 60.2667 523.699 57.7 523.699 54.7V39.95C523.699 37.9342 525.334 36.3 527.349 36.3V36.3C529.365 36.3 530.999 37.9342 530.999 39.95V54.6C530.999 59.0667 529.799 62.9333 527.399 66.2C526.824 66.9826 526.203 67.7155 525.537 68.3987C521.988 72.0345 519.427 77.2775 521.393 81.9625L527.199 95.8C527.799 97.2667 528.499 98.3 529.299 98.9C530.099 99.5 531.199 99.8 532.599 99.8H533.549C535.344 99.8 536.799 101.255 536.799 103.05V103.05C536.799 104.845 535.344 106.3 533.549 106.3H531.599C528.866 106.3 526.599 105.7 524.799 104.5C522.999 103.233 521.599 101.4 520.599 99L511.61 77.515C511.016 76.0961 509.533 75.282 507.999 75.4V75.4C507.133 75.4667 506.233 75.5 505.299 75.5H495.299C490.329 75.5 486.299 79.5294 486.299 84.5V102.7C486.299 104.688 484.688 106.3 482.699 106.3V106.3Z" fill="white"/>
<path d="M547.471 106.3C545.703 106.3 544.271 104.867 544.271 103.1V103.1C544.271 101.333 545.703 99.9 547.471 99.9H551.221C555.059 99.9 558.171 96.7884 558.171 92.95V49.65C558.171 45.8116 555.059 42.7 551.221 42.7H547.471C545.703 42.7 544.271 41.2673 544.271 39.5V39.5C544.271 37.7327 545.703 36.3 547.471 36.3H576.071C577.838 36.3 579.271 37.7327 579.271 39.5V39.5C579.271 41.2673 577.838 42.7 576.071 42.7H572.321C568.482 42.7 565.371 45.8116 565.371 49.65V92.95C565.371 96.7884 568.482 99.9 572.321 99.9H576.071C577.838 99.9 579.271 101.333 579.271 103.1V103.1C579.271 104.867 577.838 106.3 576.071 106.3H547.471Z" fill="white"/>
<path d="M639.081 107.6C635.614 107.6 632.514 106.8 629.781 105.2C627.047 103.533 624.914 101.3 623.381 98.5C621.847 95.6333 621.081 92.4 621.081 88.8V52.7C621.081 50.5667 620.581 48.6667 619.581 47C618.581 45.2667 617.247 43.9333 615.581 43C613.981 42 612.181 41.5 610.181 41.5C608.181 41.5 606.347 42 604.681 43C603.014 43.9333 601.681 45.2667 600.681 47C599.681 48.6667 599.181 50.5667 599.181 52.7V102.7C599.181 104.688 597.569 106.3 595.581 106.3V106.3C593.592 106.3 591.981 104.688 591.981 102.7V53.8C591.981 50.1333 592.747 46.9 594.281 44.1C595.814 41.3 597.947 39.1 600.681 37.5C603.414 35.8333 606.581 35 610.181 35C613.714 35 616.847 35.8333 619.581 37.5C622.314 39.1 624.447 41.3 625.981 44.1C627.581 46.9 628.381 50.1333 628.381 53.8V89.9C628.381 92.1 628.881 94.0333 629.881 95.7C630.881 97.3667 632.181 98.7 633.781 99.7C635.381 100.633 637.147 101.1 639.081 101.1C641.014 101.1 642.781 100.633 644.381 99.7C645.981 98.7 647.247 97.3667 648.181 95.7C649.114 94.0333 649.581 92.1 649.581 89.9V39.9C649.581 37.9118 651.192 36.3 653.181 36.3V36.3C655.169 36.3 656.781 37.9118 656.781 39.9V88.8C656.781 92.4 656.047 95.6333 654.581 98.5C653.114 101.3 651.047 103.533 648.381 105.2C645.714 106.8 642.614 107.6 639.081 107.6Z" fill="white"/>
<path d="M724.866 128.5C721.799 128.5 718.999 127.833 716.466 126.5C713.999 125.233 712.032 123.333 710.566 120.8C709.166 118.333 708.466 115.3 708.466 111.7C708.466 110.9 708.499 110.033 708.566 109.1V109.1C708.668 107.77 707.585 106.612 706.252 106.65C701.756 106.781 697.493 106.231 693.466 105C688.666 103.533 684.432 101.2 680.766 98C677.099 94.8 674.232 90.9333 672.166 86.4C670.099 81.8 669.066 76.6333 669.066 70.9C669.066 65.9667 669.899 61.3333 671.566 57C673.299 52.6667 675.732 48.8667 678.866 45.6C681.999 42.2667 685.766 39.6667 690.166 37.8C694.566 35.9333 699.466 35 704.866 35C710.332 35 715.266 35.9333 719.666 37.8C724.066 39.6 727.832 42.1333 730.966 45.4C734.099 48.6667 736.499 52.4667 738.166 56.8C739.833 61.0667 740.666 65.6333 740.666 70.5V111C740.666 114.667 739.999 117.8 738.666 120.4C737.399 123 735.566 125 733.166 126.4C730.766 127.8 727.999 128.5 724.866 128.5ZM724.366 121.8C726.899 121.8 729.032 120.933 730.766 119.2C732.566 117.467 733.466 114.833 733.466 111.3V95.5103C733.466 90.4983 728.01 87.3587 724.366 90.8V90.8C722.032 93 720.199 95.2667 718.866 97.6C717.599 99.9333 716.699 102.267 716.166 104.6C715.632 106.867 715.366 109 715.366 111C715.366 113.333 715.766 115.3 716.566 116.9C717.432 118.567 718.566 119.8 719.966 120.6C721.366 121.4 722.832 121.8 724.366 121.8ZM704.866 100.3C706.066 100.3 707.132 100.267 708.066 100.2V100.2C709.991 99.925 711.552 98.564 712.39 96.8097C713.16 95.199 714.085 93.5625 715.166 91.9C716.966 89.2333 719.333 86.6333 722.266 84.1C724.135 82.48 726.289 80.9118 728.727 79.3954C731.574 77.6255 733.466 74.599 733.466 71.2475V70.5C733.466 66.3667 732.732 62.5333 731.266 59C729.866 55.4667 727.866 52.4 725.266 49.8C722.732 47.1333 719.733 45.1 716.266 43.7C712.799 42.2333 708.999 41.5 704.866 41.5C700.799 41.5 696.999 42.2333 693.466 43.7C689.999 45.1667 686.966 47.2333 684.366 49.9C681.832 52.5 679.832 55.6 678.366 59.2C676.966 62.8 676.266 66.7 676.266 70.9C676.266 75.1 676.966 79 678.366 82.6C679.832 86.2 681.832 89.3333 684.366 92C686.966 94.6 689.999 96.6333 693.466 98.1C696.999 99.5667 700.799 100.3 704.866 100.3Z" fill="white"/>
<path d="M242.082 206.3C238.873 206.3 236.673 203.066 237.852 200.081L260.246 143.393C261.604 139.957 264.923 137.7 268.617 137.7H268.882C272.572 137.7 275.889 139.952 277.249 143.383L299.599 199.753C300.845 202.893 298.531 206.3 295.152 206.3V206.3C293.187 206.3 291.422 205.098 290.701 203.27L287.442 195C286.086 191.561 282.766 189.3 279.069 189.3H257.956C254.242 189.3 250.91 191.581 249.566 195.043L246.322 203.398C245.643 205.147 243.959 206.3 242.082 206.3V206.3ZM259.691 168.925C257.386 174.827 261.738 181.2 268.074 181.2H268.874C275.195 181.2 279.546 174.855 277.27 168.959L273.696 159.7C273.496 159.1 273.196 158.267 272.796 157.2C272.396 156.133 271.962 154.967 271.496 153.7C271.029 152.367 270.562 151.033 270.096 149.7C269.667 148.415 269.267 147.243 268.895 146.183C268.835 146.013 268.675 145.9 268.496 145.9V145.9C268.316 145.9 268.156 146.014 268.096 146.183C267.654 147.449 267.153 148.888 266.596 150.5C265.996 152.233 265.396 153.933 264.796 155.6C264.196 157.2 263.696 158.567 263.296 159.7L259.691 168.925Z" fill="white"/>
<path d="M339.46 206.3C334.489 206.3 330.46 202.271 330.46 197.3V146.7C330.46 141.729 334.489 137.7 339.46 137.7H365.86C369.793 137.7 373.193 138.4 376.06 139.8C378.926 141.133 381.126 143.033 382.66 145.5C384.26 147.967 385.06 150.9 385.06 154.3C385.06 156.9 384.593 159.3 383.66 161.5C382.726 163.7 381.426 165.533 379.76 167C378.139 168.426 376.299 169.505 374.237 170.238C374.131 170.276 374.06 170.376 374.06 170.488V170.488C374.06 170.612 374.146 170.719 374.266 170.747C376.584 171.289 378.682 172.24 380.56 173.6C382.493 175 384.026 176.867 385.16 179.2C386.36 181.467 386.96 184.267 386.96 187.6C386.96 192.067 386.026 195.667 384.16 198.4C382.293 201.133 379.793 203.133 376.66 204.4C373.526 205.667 369.926 206.3 365.86 206.3H339.46ZM339.96 189.1C339.96 194.071 343.989 198.1 348.96 198.1H365.76C369.16 198.1 371.926 197.233 374.06 195.5C376.193 193.7 377.26 190.733 377.26 186.6C377.26 184.067 376.793 181.967 375.86 180.3C374.926 178.567 373.56 177.3 371.76 176.5C369.96 175.633 367.693 175.2 364.96 175.2H348.96C343.989 175.2 339.96 179.229 339.96 184.2V189.1ZM339.96 158.1C339.96 163.071 343.989 167.1 348.96 167.1H364.06C366.326 167.1 368.293 166.667 369.96 165.8C371.626 164.867 372.926 163.6 373.86 162C374.86 160.333 375.36 158.467 375.36 156.4C375.36 152.8 374.393 150.167 372.46 148.5C370.526 146.767 367.96 145.9 364.76 145.9H348.96C343.989 145.9 339.96 149.929 339.96 154.9V158.1Z" fill="white"/>
<path d="M418.071 206.3C414.861 206.3 412.661 203.066 413.841 200.081L436.235 143.393C437.592 139.957 440.911 137.7 444.605 137.7H444.871C448.561 137.7 451.877 139.952 453.237 143.383L475.588 199.753C476.833 202.893 474.519 206.3 471.141 206.3V206.3C469.175 206.3 467.41 205.098 466.69 203.27L463.43 195C462.075 191.561 458.754 189.3 455.057 189.3H433.944C430.231 189.3 426.898 191.581 425.554 195.043L422.31 203.398C421.631 205.147 419.947 206.3 418.071 206.3V206.3ZM435.68 168.925C433.374 174.827 437.726 181.2 444.063 181.2H444.862C451.183 181.2 455.534 174.855 453.258 168.959L449.684 159.7C449.484 159.1 449.184 158.267 448.784 157.2C448.384 156.133 447.95 154.967 447.484 153.7C447.017 152.367 446.55 151.033 446.084 149.7C445.656 148.415 445.255 147.243 444.883 146.183C444.824 146.013 444.664 145.9 444.484 145.9V145.9C444.304 145.9 444.144 146.014 444.085 146.183C443.642 147.449 443.142 148.888 442.584 150.5C441.984 152.233 441.384 153.933 440.784 155.6C440.184 157.2 439.684 158.567 439.284 159.7L435.68 168.925Z" fill="white"/>
<path d="M534.478 207.5C527.478 207.5 521.545 206.233 516.678 203.7C511.812 201.1 508.078 197.2 505.478 192C502.945 186.733 501.678 180.067 501.678 172C501.678 160.067 504.578 151.167 510.378 145.3C516.178 139.433 524.245 136.5 534.578 136.5C540.445 136.5 545.645 137.467 550.178 139.4C554.712 141.267 558.245 144.133 560.778 148C562.626 150.7 563.817 153.905 564.352 157.615C564.73 160.239 562.529 162.4 559.878 162.4V162.4C557.227 162.4 555.166 160.223 554.599 157.633C554.174 155.694 553.467 153.983 552.478 152.5C550.812 149.9 548.445 147.967 545.378 146.7C542.312 145.367 538.712 144.7 534.578 144.7C529.778 144.7 525.645 145.633 522.178 147.5C518.712 149.367 516.078 152.267 514.278 156.2C512.478 160.067 511.578 165.067 511.578 171.2V173.3C511.578 179.367 512.478 184.333 514.278 188.2C516.078 192 518.678 194.8 522.078 196.6C525.545 198.4 529.712 199.3 534.578 199.3C538.845 199.3 542.512 198.667 545.578 197.4C548.712 196.133 551.112 194.2 552.778 191.6C553.795 190.036 554.513 188.243 554.934 186.221C555.456 183.706 557.46 181.6 560.028 181.6V181.6C562.596 181.6 564.726 183.693 564.378 186.237C563.847 190.12 562.614 193.441 560.678 196.2C558.078 200 554.512 202.833 549.978 204.7C545.445 206.567 540.278 207.5 534.478 207.5Z" fill="white"/>
<path d="M714.277 207.5C710.543 207.5 706.943 207.133 703.477 206.4C700.077 205.667 697.043 204.5 694.377 202.9C691.71 201.233 689.577 199.1 687.977 196.5C686.443 193.9 685.677 190.7 685.677 186.9C685.677 186.597 685.677 186.294 685.677 185.991C685.677 185.93 685.683 185.869 685.694 185.81V185.81C685.785 185.312 686.187 184.9 686.693 184.9H694.438C694.956 184.9 695.361 185.295 695.29 185.809V185.809C695.283 185.853 695.277 185.922 695.277 185.967C695.277 186.341 695.277 186.685 695.277 187C695.277 189.667 696.077 191.933 697.677 193.8C699.277 195.667 701.477 197.067 704.277 198C707.143 198.867 710.377 199.3 713.977 199.3C715.577 199.3 717.243 199.2 718.977 199C720.777 198.8 722.477 198.467 724.077 198C725.743 197.467 727.21 196.8 728.477 196C729.81 195.133 730.843 194.1 731.577 192.9C732.377 191.633 732.777 190.1 732.777 188.3C732.777 186.033 732.11 184.167 730.777 182.7C729.51 181.167 727.81 179.933 725.677 179C723.543 178 721.11 177.133 718.377 176.4C715.71 175.6 712.943 174.833 710.077 174.1C707.21 173.367 704.41 172.533 701.677 171.6C699.01 170.6 696.61 169.4 694.477 168C692.343 166.533 690.61 164.733 689.277 162.6C688.01 160.467 687.377 157.867 687.377 154.8C687.377 151.933 687.943 149.367 689.077 147.1C690.277 144.833 692.01 142.933 694.277 141.4C696.61 139.8 699.477 138.6 702.877 137.8C706.277 136.933 710.177 136.5 714.577 136.5C718.177 136.5 721.51 136.9 724.577 137.7C727.71 138.433 730.443 139.6 732.777 141.2C735.177 142.733 737.043 144.7 738.377 147.1C739.71 149.5 740.377 152.4 740.377 155.8V155.8C740.377 156.463 739.84 157 739.177 157H732.477C731.648 157 730.977 156.328 730.977 155.5V155.5C730.977 153.233 730.277 151.3 728.877 149.7C727.477 148.1 725.543 146.867 723.077 146C720.677 145.133 717.943 144.7 714.877 144.7C710.877 144.7 707.543 145.1 704.877 145.9C702.21 146.633 700.21 147.733 698.877 149.2C697.61 150.6 696.977 152.2 696.977 154C696.977 156.067 697.61 157.8 698.877 159.2C700.21 160.6 701.943 161.767 704.077 162.7C706.21 163.567 708.643 164.367 711.377 165.1C714.11 165.833 716.877 166.6 719.677 167.4C722.543 168.133 725.31 169 727.977 170C730.71 170.933 733.143 172.133 735.277 173.6C737.477 175 739.21 176.8 740.477 179C741.743 181.133 742.377 183.767 742.377 186.9C742.377 191.767 741.177 195.733 738.777 198.8C736.377 201.8 733.077 204 728.877 205.4C724.677 206.8 719.81 207.5 714.277 207.5Z" fill="white"/>
<path d="M428.014 52.7C428.014 50.5667 427.514 48.6667 426.514 47C425.514 45.2667 424.181 43.9333 422.514 43C420.914 42 419.114 41.5 417.114 41.5C415.114 41.5 413.281 42 411.614 43C409.948 43.9333 408.614 45.2667 407.614 47C406.614 48.6667 406.114 50.5667 406.114 52.7V102.7C406.114 104.688 404.502 106.3 402.514 106.3V106.3C400.526 106.3 398.914 104.688 398.914 102.7V53.8C398.914 50.1333 399.681 46.9 401.214 44.1C402.748 41.3 404.881 39.1 407.614 37.5C410.348 35.8333 413.514 35 417.114 35C420.648 35 423.781 35.8333 426.514 37.5C429.248 39.1 431.381 41.3 432.914 44.1C434.514 46.9 435.314 50.1333 435.314 53.8V61.85C435.314 63.8658 433.68 65.5 431.664 65.5V65.5C429.648 65.5 428.014 63.8658 428.014 61.85V52.7Z" fill="white"/>
<path d="M446.014 107.6C442.548 107.6 439.448 106.8 436.714 105.2C433.981 103.533 431.848 101.3 430.314 98.5C428.781 95.6333 428.014 92.4 428.014 88.8V82.15C428.014 80.1342 429.648 78.5 431.664 78.5V78.5C433.68 78.5 435.314 80.1342 435.314 82.15V89.9C435.314 92.1 435.814 94.0333 436.814 95.7C437.814 97.3667 439.114 98.7 440.714 99.7C442.314 100.633 444.081 101.1 446.014 101.1C447.948 101.1 449.714 100.633 451.314 99.7C452.914 98.7 454.181 97.3667 455.114 95.7C456.048 94.0333 456.514 92.1 456.514 89.9V39.9C456.514 37.9118 458.126 36.3 460.114 36.3V36.3C462.102 36.3 463.714 37.9118 463.714 39.9V88.8C463.714 92.4 462.981 95.6333 461.514 98.5C460.048 101.3 457.981 103.533 455.314 105.2C452.648 106.8 449.548 107.6 446.014 107.6Z" fill="white"/>
<path d="M596.732 180.3V141.95C596.732 139.603 598.635 137.7 600.982 137.7V137.7C603.329 137.7 605.232 139.603 605.232 141.95V181.3C605.232 187.3 607.832 191.8 611.032 194.8C614.299 197.8 618.866 199.3 624.732 199.3C630.666 199.3 635.299 197.8 638.632 194.8C641.966 191.8 643.632 187.3 643.632 181.3V142.4C643.632 139.804 645.736 137.7 648.332 137.7V137.7C650.928 137.7 653.032 139.804 653.032 142.4V180.3V198.5C653.032 203.471 649.003 207.5 644.032 207.5H624.732H605.732C600.762 207.5 596.732 203.471 596.732 198.5V180.3Z" fill="white"/>
<circle cx="431.5" cy="71.5" r="3.5" fill="white"/>
<circle cx="624.5" cy="171.5" r="5.5" fill="white"/>
</svg>
