<svg width="924" height="380" viewBox="0 0 924 380" fill="none" xmlns="http://www.w3.org/2000/svg">
<rect width="924" height="380" fill="black"/>
<path fill-rule="evenodd" clip-rule="evenodd" d="M235.924 181.542C236.033 181.541 236.144 181.54 236.258 181.539C236.265 181.539 236.272 181.539 236.28 181.538C236.158 181.54 236.04 181.541 235.924 181.542Z" fill="white"/>
<path d="M203.921 244.739V239.074H168.27C166.67 239.074 165.373 240.371 165.373 241.97V241.97C165.373 243.57 166.67 244.866 168.27 244.866H203.921V244.739Z" fill="white"/>
<path fill-rule="evenodd" clip-rule="evenodd" d="M203.921 239.074V244.739V244.866H168.27C166.67 244.866 165.373 243.57 165.373 241.97V241.97C165.373 240.371 166.67 239.074 168.27 239.074H203.921Z" fill="white"/>
<path fill-rule="evenodd" clip-rule="evenodd" d="M96.2405 92.9565C97.2703 91.9267 97.8772 91.5773 99.2563 91.1912C100.084 90.9705 110.418 90.9521 171.671 90.9705L241.886 91.0067C242.693 91.0071 243.489 91.1896 244.215 91.5405V91.5405C245.668 92.2577 246.955 93.5817 247.672 95.108V95.108C248.06 95.9191 248.261 96.8065 248.262 97.7054L248.316 184.606C248.334 243.745 248.297 273.203 248.169 273.884C247.764 276.127 246.22 278.15 244.178 279.161V279.161C243.476 279.5 242.707 279.676 241.927 279.676H171.12H100.328C99.5394 279.676 98.7618 279.487 98.061 279.125V279.125C96.7554 278.481 95.3027 276.936 94.6407 275.539V275.539C94.3259 274.873 94.1622 274.145 94.1614 273.409L94.0707 187.181C94.0155 139.131 94.0155 99.0432 94.0707 98.087C94.1994 95.9171 94.8614 94.3357 96.2405 92.9565ZM242.431 117.984L242.398 130.9C242.386 135.563 238.606 139.339 233.943 139.346L230.166 139.351L218.565 139.386C218.189 139.387 217.843 139.184 217.662 138.855V138.855C216.706 137.163 215.713 135.858 214.131 134.276C212.255 132.419 210.527 131.26 208.283 130.359L208.11 130.29L207.887 130.201L207.703 130.129C206.52 129.66 206.093 129.491 205.944 129.186C205.861 129.015 205.864 128.801 205.871 128.466C205.873 128.366 205.875 128.257 205.875 128.134C205.875 124.714 203.999 120.668 201.057 117.745C198.832 115.538 195.558 113.534 192.69 112.632C189.84 111.731 187.982 111.474 185.04 111.566C180.7 111.695 178.052 112.577 175.882 114.6C174.264 116.108 173.363 117.855 173.179 119.786C173.106 120.54 173.087 139.204 173.142 161.252L173.232 200.072C173.233 200.911 173.377 201.744 173.657 202.535V202.535C174.154 203.914 175.754 206.415 176.692 207.261C179.321 209.652 182.282 210.81 185.739 210.81C187.78 210.81 189.398 210.498 191.127 209.762L191.585 209.576C192.037 209.392 192.549 209.434 192.966 209.689V209.689C194.124 210.369 195.614 210.994 197.048 211.417C199.199 212.024 202.804 211.969 205.139 211.288C209.626 209.983 212.844 207.372 214.885 203.326L215.425 202.265C215.72 201.686 216.282 201.292 216.926 201.211V201.211C219.556 200.88 222.994 199.244 225.164 197.294C227.831 194.886 229.596 191.759 230.332 188.229V188.229C230.471 187.564 231.057 187.089 231.736 187.089H236.51V187.089C239.801 187.089 242.468 189.756 242.468 193.047V239.074H236.055C234.456 239.074 233.159 240.371 233.159 241.97V241.97C233.159 243.57 234.456 244.866 236.055 244.866H237.814C240.384 244.866 242.468 246.95 242.468 249.521V270.04V270.04C242.468 272.264 240.665 274.068 238.44 274.068H238.233H103.894H103.278C101.341 274.068 99.7712 272.498 99.7712 270.561V270.561V244.739H108.781C110.345 244.739 111.614 243.471 111.614 241.907V241.907C111.614 240.342 110.345 239.074 108.781 239.074H105.692C102.422 239.074 99.7712 236.423 99.7712 233.153V192.734C99.7712 189.622 102.305 187.105 105.417 187.125V187.125L109.411 187.165C110.374 187.174 111.21 187.83 111.448 188.762V188.762C112.643 193.562 116.229 197.938 120.587 199.961C121.875 200.549 124.302 201.248 125.093 201.248C125.791 201.248 125.902 201.358 126.509 202.627C128.09 205.845 130.297 208.291 132.963 209.799C137.781 212.502 144.051 212.576 148.483 209.983C149.347 209.486 149.678 209.358 149.862 209.505C149.991 209.615 150.8 209.928 151.646 210.222C153.062 210.682 153.43 210.718 155.949 210.7C158.468 210.7 158.818 210.663 160.086 210.203C164.463 208.604 167.479 205.367 168.453 201.156C168.692 200.09 168.729 195.18 168.729 159.597V120.503C168.729 119.676 168.586 118.854 168.306 118.076V118.076C167.368 115.52 164.959 113.258 162.109 112.265C159.994 111.548 155.085 111.217 153.099 111.676C152.852 111.736 152.466 111.821 152.051 111.914L152.045 111.915L152.043 111.916C151.689 111.995 151.313 112.078 150.984 112.154C146.883 113.111 143.555 114.949 140.649 117.91C137.836 120.779 136.218 124.199 135.905 127.987L135.845 128.683C135.803 129.165 135.481 129.578 135.023 129.734V129.734C133.662 130.157 131.345 131.279 130.113 132.106C128.292 133.338 126.141 135.637 124.945 137.641V137.641C124.306 138.714 123.152 139.373 121.904 139.379L112.257 139.425C105.839 139.443 100.415 139.425 100.194 139.37V139.37C99.9473 139.316 99.7712 139.098 99.7712 138.845V117.947V105.084C99.7712 100.407 103.562 96.6159 108.239 96.6159H171.12H233.986C238.668 96.6159 242.462 100.416 242.454 105.098L242.431 117.984ZM157.696 117.395C160.123 117.781 161.815 118.701 162.459 120.025C162.845 120.816 162.845 121.036 162.808 127.619L162.805 128.042C162.776 131.579 159.927 134.446 156.39 134.497V134.497C150.524 134.589 149.991 134.625 149.439 134.956C147.656 136.005 147.472 138.395 149.108 139.37C149.66 139.719 150.12 139.738 156.28 139.793L160.418 139.828C161.761 139.839 162.845 140.931 162.845 142.275V142.275C162.845 143.618 162.79 144.886 162.734 145.107C162.624 145.493 162.551 145.512 158.836 145.567C155.324 145.622 154.974 145.659 154.276 146.027C152.657 146.891 151.628 148.123 151.058 149.888C150.782 150.697 150.708 151.47 150.708 153.474C150.708 154.89 150.616 156.196 150.524 156.398C150.34 156.729 150.101 156.747 147.361 156.747C143.996 156.747 143.206 156.913 142.433 157.795C141.403 158.972 141.606 160.664 142.875 161.583C143.408 161.97 143.684 161.988 147.398 162.043C153.577 162.154 154.515 161.97 155.563 160.554C155.912 160.076 155.949 159.726 156.041 156.012C156.114 152.463 156.17 151.948 156.464 151.654C156.74 151.378 157.199 151.323 159.663 151.267C161.907 151.212 162.569 151.249 162.679 151.451C162.863 151.727 162.9 155.828 162.734 156.269C162.661 156.471 162.385 156.563 161.833 156.563C160.399 156.563 159.112 157.814 159.112 159.193C159.112 160.627 160.16 161.675 161.815 161.878V161.878C162.35 161.941 162.753 162.394 162.753 162.932V164.93V164.93C162.753 166.569 161.449 167.91 159.812 167.956L159.535 167.964C156.133 168.075 155.655 168.185 154.846 169.068C154.551 169.399 154.478 169.73 154.478 170.741C154.478 171.918 154.515 172.047 155.085 172.598V172.598C155.462 172.987 155.976 173.213 156.518 173.227L159.222 173.297L160.124 173.321C161.595 173.359 162.777 174.547 162.808 176.019V176.019C162.863 178.685 162.734 179.365 162.183 179.365C161.741 179.365 160.84 180.064 160.546 180.653C159.774 182.142 160.896 184.514 162.348 184.514C162.495 184.514 162.679 184.643 162.734 184.808C162.882 185.176 162.882 188.376 162.734 189.608V189.608C162.661 190.166 162.185 190.583 161.623 190.583H159.829C155.931 190.583 155.232 190.693 154.478 191.392C153.65 192.182 153.485 193.102 153.945 194.224C154.165 194.757 154.551 195.235 154.919 195.492C155.489 195.879 155.747 195.915 158.321 195.934C159.847 195.934 161.466 196.007 161.925 196.062V196.062C162.4 196.136 162.749 196.548 162.745 197.029L162.734 198.048C162.716 199.611 162.642 200.053 162.256 200.917C161.337 202.921 159.572 204.264 157.181 204.742C154.717 205.238 151.793 204.245 149.844 202.223C147.343 199.648 146.387 196.577 147.435 194.426C148.593 192.017 147.6 189.847 145.32 189.847C143.537 189.847 142.599 190.711 141.79 193.102V193.102C141.546 193.853 140.861 194.374 140.072 194.406L139.123 194.444C136.898 194.536 136.861 194.555 136.438 195.088C136.181 195.4 135.887 195.952 135.776 196.338C135.482 197.294 135.887 198.379 136.806 199.133C137.468 199.667 137.579 199.685 139.601 199.74L139.955 199.753C141.024 199.79 141.982 200.425 142.433 201.395V201.395C142.838 202.259 143.5 203.4 143.904 203.914C144.309 204.448 144.64 204.963 144.64 205.055C144.64 205.441 142.249 206.029 140.705 206.029C138.038 206.029 136.071 205.183 134.066 203.179C132.558 201.671 131.768 200.237 131.198 197.938V197.938C130.95 196.881 130.195 196.23 129.113 196.131C128.996 196.12 128.875 196.11 128.752 196.099C122.959 195.584 119.227 193.028 117.516 188.376C117.093 187.217 117.001 186.703 117.001 185.066C116.983 182.05 117.847 179.917 120.017 177.618L120.278 177.346C120.804 176.796 121.676 176.778 122.224 177.306V177.306C123.511 178.575 124.412 178.998 125.828 178.998C126.784 178.998 127.042 178.924 127.557 178.501C128.311 177.858 128.642 177.048 128.642 175.798C128.642 175.764 128.642 175.732 128.642 175.7L128.643 175.608C128.645 175.354 128.647 175.177 128.597 175.015C128.479 174.637 128.076 174.347 126.728 173.378C126.575 173.268 126.411 173.15 126.233 173.021C124.173 171.532 122.481 168.792 122.095 166.309C121.764 164.195 122.132 161.841 123.051 160.002C123.603 158.935 124.817 157.299 125.681 156.49V156.49C125.986 156.195 126.473 156.201 126.77 156.504L127.281 157.023L127.7 157.457C128.078 157.849 128.22 158.412 128.072 158.935V158.935C127.741 160.039 127.759 163.367 128.072 164.654C128.55 166.585 130.076 168.939 131.234 169.527C132.338 170.116 133.938 169.601 134.71 168.406C135.243 167.615 135.17 167.247 134.158 165.151C133.368 163.496 133.239 163.11 133.239 162.117C133.239 159.91 134.324 157.979 136.273 156.71C137.707 155.773 138.112 155.111 137.983 153.934C137.854 152.757 137.284 152.058 136.181 151.69C135.023 151.304 134.048 151.562 132.816 152.573L132.489 152.84C132.164 153.105 131.691 153.077 131.4 152.775V152.775C129.8 151.157 128.825 148.564 128.825 145.971C128.825 141.76 131.216 138.027 135.133 136.097C135.868 135.729 136.861 135.324 137.34 135.196L137.473 135.162C137.929 135.048 138.409 135.212 138.7 135.582V135.582C139.528 136.63 140.061 136.851 141.348 136.667C141.955 136.593 142.544 136.483 142.635 136.428C142.727 136.354 143.334 135.508 143.996 134.497C146.571 130.598 149.697 128.815 153.981 128.796C156.078 128.796 157.144 127.987 157.144 126.406C157.144 125.449 156.685 124.585 155.802 123.942C155.158 123.463 153.448 123.353 151.186 123.629C147.729 124.052 144.732 125.505 142.672 127.766C141.716 128.815 141.698 128.815 141.698 128.281C141.698 127.196 142.691 124.787 143.739 123.372C146.093 120.154 149.66 118.131 154.184 117.487C156.243 117.175 156.298 117.175 157.696 117.395ZM189.784 117.91C190.502 118.112 191.531 118.443 192.083 118.682C194.529 119.657 197.728 122.415 198.832 124.475C199.512 125.799 200.174 127.601 200.174 128.208C200.174 128.594 200.009 128.484 198.758 127.325C197.213 125.891 194.713 124.53 192.451 123.923C190.851 123.482 187.136 123.463 186.18 123.868C185.132 124.328 184.544 125.229 184.544 126.387C184.544 127.196 184.635 127.417 185.169 128.006V128.006C185.569 128.442 186.125 128.703 186.717 128.733L188.313 128.815C190.796 128.943 190.888 128.962 192.359 129.697C194.308 130.654 196.165 132.364 197.544 134.46C198.114 135.343 198.721 136.152 198.868 136.28C199.034 136.391 199.677 136.538 200.321 136.611C201.608 136.74 202.05 136.575 202.969 135.527V135.527C203.261 135.189 203.721 135.05 204.151 135.168L204.587 135.288C207.989 136.244 210.858 138.653 212.384 141.852C212.936 143.029 212.954 143.103 212.954 145.714C212.936 148.196 212.917 148.454 212.439 149.576C211.906 150.826 210.637 152.702 210.067 153.051C209.773 153.235 209.644 153.18 209.258 152.72C208.835 152.205 207.143 151.414 206.518 151.414C206.353 151.414 205.875 151.58 205.415 151.801C204.367 152.297 203.852 153.106 203.852 154.265C203.852 155.221 204.072 155.497 206.169 157.225C208.541 159.193 209.074 162.742 207.438 165.482C207.088 166.052 206.757 166.787 206.702 167.1C206.5 168.277 207.824 169.803 209.037 169.803C210.361 169.803 211.961 168.387 212.881 166.383C213.966 164.011 214.223 161.694 213.69 159.156V159.156C213.518 158.354 213.759 157.517 214.333 156.931V156.931C214.83 156.435 215.308 156.012 215.418 156.012C215.676 156.012 217.423 157.887 218.103 158.917C218.434 159.395 218.912 160.351 219.206 161.069C219.648 162.172 219.721 162.632 219.74 164.195C219.74 166.291 219.482 167.541 218.692 169.233C218.011 170.686 216.209 172.617 214.517 173.738C213.101 174.676 213.009 174.897 213.322 176.515C213.506 177.398 213.671 177.71 214.297 178.299C214.977 178.924 215.161 178.998 215.988 178.998C217.147 178.998 217.772 178.685 219.262 177.379V177.379C219.915 176.809 220.898 176.839 221.515 177.448L221.707 177.637C224.3 180.193 225.348 183.834 224.521 187.401C223.399 192.274 218.949 195.639 212.954 196.191C212.145 196.265 211.354 196.393 211.189 196.485C211.023 196.577 210.821 196.945 210.748 197.331C210.527 198.527 209.755 200.531 209.166 201.45C207.897 203.436 205.415 205.22 203.061 205.845C201.498 206.268 197.361 205.772 196.956 205.11C196.919 205.036 197.048 204.779 197.25 204.54C197.967 203.712 198.685 202.59 199.163 201.506C199.31 201.192 199.457 200.868 199.573 200.611L199.574 200.61C199.675 200.386 199.754 200.213 199.788 200.145C199.898 199.942 200.395 199.851 201.755 199.777C203.705 199.667 204.017 199.556 204.826 198.71C205.838 197.644 205.819 196.081 204.753 195.069C204.238 194.573 204.091 194.536 202.509 194.481L202.505 194.481C200.082 194.407 200.064 194.407 199.825 193.414C199.218 190.987 198.096 189.847 196.331 189.847C195.154 189.847 194.455 190.215 193.903 191.116C193.352 192.035 193.444 193.194 194.198 194.72L194.238 194.8C194.64 195.593 194.756 196.5 194.565 197.368V197.368C194.032 199.887 192.69 201.855 190.612 203.179C188.975 204.209 188.185 204.521 186.566 204.724C184.121 205.055 182.282 204.356 180.535 202.443C179.229 201.009 178.806 199.832 178.88 197.681V197.681C178.911 196.744 179.672 195.996 180.609 195.981L182.392 195.952C186.18 195.897 186.603 195.787 187.32 194.683C187.743 194.058 187.78 192.624 187.412 191.888C186.842 190.785 186.456 190.675 182.521 190.583L181.509 190.557C180.068 190.52 178.911 189.357 178.88 187.916V187.916C178.861 186.5 178.88 185.158 178.935 184.937C178.99 184.698 179.266 184.459 179.67 184.33C180.7 183.981 181.234 183.209 181.234 181.995C181.234 180.671 180.774 179.899 179.67 179.384V179.384C179.157 179.149 178.832 178.632 178.843 178.068L178.88 176.184V176.184C178.911 174.62 180.166 173.358 181.73 173.318L182.558 173.297L185.367 173.226C185.901 173.213 186.409 172.995 186.787 172.617V172.617C187.283 172.12 187.375 171.863 187.431 170.962C187.523 169.656 187.118 168.884 186.033 168.332C185.371 168.001 184.948 167.964 182.061 167.964H181.748C180.144 167.964 178.843 166.664 178.843 165.059V165.059C178.843 161.951 178.917 161.712 179.762 161.712C180.443 161.712 181.491 160.774 181.785 159.892C182.263 158.402 181.27 156.784 179.726 156.582V156.582C179.272 156.518 178.935 156.131 178.935 155.673V153.897V153.897C178.935 152.467 180.079 151.301 181.509 151.273L181.804 151.267C182.065 151.263 182.309 151.257 182.535 151.251L182.537 151.251C183.931 151.217 184.683 151.199 185.094 151.564C185.576 151.99 185.593 152.941 185.629 155.004C185.634 155.298 185.639 155.615 185.647 155.956C185.739 159.671 185.776 160.02 186.143 160.609C186.934 161.896 187.265 161.97 191.862 162.043C194.124 162.08 196.607 162.062 197.379 161.988C198.721 161.859 198.832 161.823 199.494 161.142C200.082 160.499 200.174 160.296 200.174 159.524C200.174 158.476 199.659 157.593 198.703 157.041C198.096 156.674 197.82 156.655 194.621 156.71L191.697 156.773C191.401 156.779 191.155 156.546 191.145 156.251V156.251C191.127 155.975 191.127 154.982 191.145 154.081C191.163 150.605 190.465 148.435 188.828 147.02L188.825 147.017C187.283 145.659 187.263 145.64 182.889 145.53L181.748 145.504C180.175 145.467 178.911 144.198 178.88 142.625V142.625V142.625C178.849 141.09 180.085 139.83 181.62 139.83H184.893C188.46 139.83 191.329 139.756 191.862 139.627C194.308 139.112 194.51 136.17 192.175 134.901C191.697 134.625 190.722 134.57 185.279 134.497V134.497C181.752 134.446 178.912 131.587 178.884 128.06L178.88 127.546L178.875 126.807C178.837 121.614 178.828 120.315 179.457 119.524C179.667 119.26 179.948 119.052 180.323 118.776C180.379 118.734 180.437 118.691 180.498 118.646C181.105 118.204 182.355 117.726 183.44 117.506C184.452 117.303 188.516 117.579 189.784 117.91ZM116.56 144.96L121.341 144.974C122.226 144.976 122.941 145.694 122.941 146.578V146.578C122.941 147.479 123.033 148.766 123.125 149.447V149.447C123.241 150.233 122.976 151.028 122.411 151.587L121.231 152.757C118.362 155.607 117.057 157.814 116.431 160.958C115.788 164.084 115.935 167.045 116.873 169.858C117.185 170.741 117.424 171.569 117.424 171.679C117.424 171.808 116.818 172.488 116.1 173.205C113.875 175.375 112.404 177.747 111.614 180.432V180.432C111.406 181.109 110.779 181.569 110.072 181.564L105.564 181.535V181.535C102.404 181.505 99.8554 178.939 99.8458 175.779L99.808 163.367C99.7896 153.4 99.808 145.162 99.8448 145.034C99.9183 144.868 101.242 144.831 105.049 144.886C107.274 144.916 110.971 144.933 114.166 144.948H114.167L114.173 144.948L114.176 144.948L114.192 144.948L114.216 144.949C115.043 144.952 115.836 144.956 116.56 144.96ZM236.639 181.535C239.816 181.505 242.376 178.92 242.376 175.743V163.183V153.354C242.376 148.678 238.585 144.886 233.908 144.886H230.736C225.814 144.886 221.573 144.908 219.839 144.935C219.281 144.943 218.953 145.236 218.938 145.793C218.933 145.962 218.931 146.148 218.931 146.339C218.912 147.737 218.673 149.833 218.471 150.348C218.379 150.587 218.581 150.881 219.243 151.451C222.038 153.897 223.675 156.104 224.705 158.825C225.551 161.05 225.734 162.117 225.753 164.452C225.753 166.935 225.238 169.399 224.337 171.127C224.254 171.288 224.196 171.4 224.193 171.514C224.186 171.777 224.477 172.048 225.44 172.948C227.665 175.026 229.21 177.398 230.074 180.064C230.096 180.132 230.107 180.185 230.118 180.24C230.126 180.281 230.134 180.322 230.148 180.371C230.29 180.888 230.675 181.342 231.201 181.444C231.901 181.579 233.17 181.568 235.618 181.545L235.924 181.542L236.258 181.539L236.28 181.538L236.302 181.538L236.639 181.535V181.535Z" fill="white"/>
<path fill-rule="evenodd" clip-rule="evenodd" d="M151.922 238.003L151.831 234.785L151.739 231.585L150.948 230.004C149.422 226.915 146.939 225.149 143.887 224.929C143.041 224.873 141.864 224.929 141.275 225.039C139.951 225.278 138.057 226.197 137.377 226.915C137.101 227.209 136.789 227.448 136.697 227.448C136.605 227.448 136.182 227.154 135.777 226.786C135.373 226.418 134.49 225.848 133.828 225.535C132.688 225.002 132.486 224.965 130.5 224.965C128.514 224.965 128.311 225.002 127.171 225.535C126.509 225.848 125.627 226.418 125.222 226.786C124.817 227.154 124.413 227.448 124.339 227.448C124.266 227.448 123.88 227.172 123.475 226.823C119.669 223.568 113.398 224.524 110.584 228.772C110.235 229.305 109.72 230.317 109.444 231.015C108.985 232.192 108.948 232.523 108.911 235.116C108.874 236.679 108.782 238.003 108.69 238.095V243.832C108.746 243.887 108.838 245.285 108.893 246.958C109.021 251.114 109.5 252.549 111.486 254.663C112.773 256.024 113.913 256.723 115.513 257.146C118.326 257.863 121.213 257.164 123.475 255.197L124.082 254.663L125.038 255.436C125.571 255.84 126.528 256.447 127.19 256.76C128.274 257.275 128.55 257.311 130.316 257.311C132.596 257.33 133.791 256.944 135.299 255.711C135.524 255.533 135.746 255.354 135.937 255.2L135.937 255.2L135.938 255.2C136.199 254.99 136.402 254.827 136.476 254.774C136.641 254.645 136.936 254.81 137.414 255.27C140.65 258.359 146.332 258.01 149.44 254.516C151.279 252.457 151.831 250.636 151.831 246.627V243.814L151.922 238.003ZM121.029 232.817C120.68 232.027 120.11 231.365 119.429 231.015C118.841 230.703 117.131 230.684 116.616 230.979C115.825 231.401 115.218 232.155 114.961 233.038C114.74 233.774 114.685 235.373 114.685 241.387C114.685 246.425 114.759 249.055 114.887 249.533C115.549 251.684 118.289 252.438 120.073 250.967L120.089 250.954C121.305 249.956 121.305 249.956 121.305 241.295C121.305 234.675 121.268 233.406 121.029 232.817ZM131.989 231.052C132.614 231.365 133.405 232.303 133.589 232.928C133.662 233.204 133.718 237.028 133.718 241.46V249.478L133.166 250.268C132.467 251.243 131.584 251.721 130.444 251.721C129.433 251.721 128.771 251.427 128.091 250.673C127.226 249.735 127.19 249.404 127.19 241.019C127.19 233.461 127.208 233.112 127.557 232.413C128.348 230.85 130.389 230.225 131.989 231.052ZM145.707 232.431C145.431 231.88 145.027 231.438 144.549 231.181C143.114 230.353 141.183 230.721 140.301 231.99C139.528 233.093 139.51 233.387 139.639 241.552C139.74 248.387 139.739 249.691 140.38 250.458C140.553 250.665 140.773 250.832 141.055 251.059C141.588 251.5 141.937 251.629 142.783 251.666C144.126 251.758 144.935 251.353 145.67 250.158L146.222 249.275L146.185 241.276L146.148 233.259L145.707 232.431Z" fill="white"/>
<path fill-rule="evenodd" clip-rule="evenodd" d="M163.167 226.32C159.671 223.907 151.205 224.317 149.307 229.147C148.493 232.664 148.532 232.561 148.493 235.288C148.456 236.851 148.364 238.175 148.272 238.267V244.005C148.328 244.06 148.42 245.457 148.475 247.131C148.603 251.287 149.082 252.721 151.068 254.836C152.355 256.196 153.495 256.895 155.095 257.318C157.908 258.035 160.795 257.337 163.057 255.369L163.664 254.836C164.574 254.049 165.995 251.127 165.995 248.456V233.21C165.551 229.285 164.547 227.148 163.167 226.32ZM160.611 232.99C160.262 232.199 159.692 231.537 159.012 231.188C158.423 230.875 156.713 230.857 156.198 231.151C155.407 231.574 154.8 232.328 154.543 233.21C154.322 233.946 154.267 235.546 154.267 241.559C154.267 246.597 154.341 249.227 154.469 249.705C155.131 251.857 157.871 252.611 159.655 251.14L159.671 251.127C160.887 250.128 160.887 250.128 160.887 241.467C160.887 234.847 160.85 233.578 160.611 232.99Z" fill="white"/>
<path fill-rule="evenodd" clip-rule="evenodd" d="M234.415 238.175L234.323 234.957L234.231 231.757L233.441 230.176C231.914 227.087 229.432 225.321 226.379 225.101C225.533 225.046 224.357 225.101 223.768 225.211C222.444 225.45 220.55 226.37 219.87 227.087C219.594 227.381 219.281 227.62 219.189 227.62C219.097 227.62 218.674 227.326 218.27 226.958C217.865 226.59 216.983 226.02 216.321 225.708C215.181 225.174 214.978 225.137 212.992 225.137C211.006 225.137 210.804 225.174 209.664 225.708C209.002 226.02 208.119 226.59 207.715 226.958C206.748 227.837 204.258 230.595 203.913 233.431C203.775 236.043 203.913 247.835 203.913 247.835C203.96 249.969 204.264 251.257 205.361 253.627C205.913 254.455 208.05 256.422 209.682 256.932C210.583 257.213 212.395 257.48 212.808 257.483C215.089 257.502 216.284 257.116 217.792 255.884C218.017 255.705 218.24 255.526 218.431 255.372L218.431 255.371C218.692 255.162 218.894 254.999 218.969 254.946C219.134 254.817 219.428 254.983 219.906 255.442C223.143 258.532 228.825 258.182 231.933 254.688C233.772 252.629 234.323 250.808 234.323 246.799V243.986L234.415 238.175ZM216.082 233.1C215.898 232.475 215.107 231.537 214.482 231.224C212.882 230.397 210.841 231.022 210.05 232.585C209.701 233.284 209.682 233.633 209.682 241.191C209.682 249.576 209.719 249.907 210.583 250.845C211.264 251.599 211.926 251.893 212.937 251.893C214.077 251.893 214.96 251.415 215.659 250.44L216.21 249.65V241.632C216.21 237.201 216.155 233.376 216.082 233.1ZM228.2 232.603C227.924 232.052 227.519 231.61 227.041 231.353C225.607 230.525 223.676 230.893 222.794 232.162C222.021 233.265 222.003 233.56 222.132 241.724L222.141 242.353C222.233 248.641 222.252 249.888 222.873 250.63C223.027 250.814 223.217 250.966 223.455 251.157L223.457 251.159C223.487 251.182 223.517 251.206 223.547 251.231C224.081 251.673 224.43 251.801 225.276 251.838C226.618 251.93 227.428 251.525 228.163 250.33L228.715 249.447L228.678 241.448L228.641 233.431L228.2 232.603Z" fill="white"/>
<path d="M324.86 172.3C321.327 172.3 318.26 171.567 315.66 170.1C313.06 168.567 311.06 166.467 309.66 163.8C308.26 161.133 307.56 158.1 307.56 154.7V117.7C307.56 112.729 303.531 108.7 298.56 108.7H288.56C286.793 108.7 285.36 107.267 285.36 105.5V105.5C285.36 103.733 286.793 102.3 288.56 102.3H333.76C335.528 102.3 336.96 103.733 336.96 105.5V105.5C336.96 107.267 335.528 108.7 333.76 108.7H323.76C318.79 108.7 314.76 112.729 314.76 117.7V155.7C314.76 158.633 315.66 161.067 317.46 163C319.327 164.933 321.827 165.9 324.96 165.9H326.16C327.928 165.9 329.36 167.333 329.36 169.1V169.1C329.36 170.867 327.928 172.3 326.16 172.3H324.86Z" fill="white"/>
<path d="M351.192 172.3C349.203 172.3 347.592 170.688 347.592 168.7V106C347.592 104.012 349.203 102.4 351.192 102.4V102.4C353.18 102.4 354.792 104.012 354.792 106V124.5C354.792 129.471 358.821 133.5 363.792 133.5H385.892C390.862 133.5 394.892 129.471 394.892 124.5V106C394.892 104.012 396.503 102.4 398.492 102.4V102.4C400.48 102.4 402.092 104.012 402.092 106V168.7C402.092 170.688 400.48 172.3 398.492 172.3V172.3C396.503 172.3 394.892 170.688 394.892 168.7V148.9C394.892 143.929 390.862 139.9 385.892 139.9H363.792C358.821 139.9 354.792 143.929 354.792 148.9V168.7C354.792 170.688 353.18 172.3 351.192 172.3V172.3Z" fill="white"/>
<path d="M418.404 172.3C416.637 172.3 415.204 170.867 415.204 169.1V169.1C415.204 167.333 416.637 165.9 418.404 165.9H422.154C425.992 165.9 429.104 162.788 429.104 158.95V115.65C429.104 111.812 425.992 108.7 422.154 108.7H418.404C416.637 108.7 415.204 107.267 415.204 105.5V105.5C415.204 103.733 416.637 102.3 418.404 102.3H447.004C448.771 102.3 450.204 103.733 450.204 105.5V105.5C450.204 107.267 448.771 108.7 447.004 108.7H443.254C439.416 108.7 436.304 111.812 436.304 115.65V158.95C436.304 162.788 439.416 165.9 443.254 165.9H447.004C448.771 165.9 450.204 167.333 450.204 169.1V169.1C450.204 170.867 448.771 172.3 447.004 172.3H418.404Z" fill="white"/>
<path d="M546.699 172.3C544.711 172.3 543.099 170.688 543.099 168.7V105.9C543.099 103.912 544.711 102.3 546.699 102.3V102.3C548.688 102.3 550.299 103.912 550.299 105.9V126.1C550.299 131.071 554.329 135.1 559.299 135.1H570.899C574.099 135.1 576.933 134.533 579.399 133.4C581.933 132.2 583.933 130.533 585.399 128.4C586.933 126.267 587.699 123.7 587.699 120.7V105.95C587.699 103.934 589.334 102.3 591.349 102.3V102.3C593.365 102.3 594.999 103.934 594.999 105.95V120.6C594.999 125.067 593.799 128.933 591.399 132.2C590.824 132.983 590.203 133.716 589.537 134.399C585.988 138.034 583.427 143.278 585.393 147.963L591.199 161.8C591.799 163.267 592.499 164.3 593.299 164.9C594.099 165.5 595.199 165.8 596.599 165.8H597.549C599.344 165.8 600.799 167.255 600.799 169.05V169.05C600.799 170.845 599.344 172.3 597.549 172.3H595.599C592.866 172.3 590.599 171.7 588.799 170.5C586.999 169.233 585.599 167.4 584.599 165L575.61 143.515C575.016 142.096 573.533 141.282 571.999 141.4V141.4C571.133 141.467 570.233 141.5 569.299 141.5H559.299C554.329 141.5 550.299 145.529 550.299 150.5V168.7C550.299 170.688 548.688 172.3 546.699 172.3V172.3Z" fill="white"/>
<path d="M611.471 172.3C609.703 172.3 608.271 170.867 608.271 169.1V169.1C608.271 167.333 609.703 165.9 611.471 165.9H615.221C619.059 165.9 622.171 162.788 622.171 158.95V115.65C622.171 111.812 619.059 108.7 615.221 108.7H611.471C609.703 108.7 608.271 107.267 608.271 105.5V105.5C608.271 103.733 609.703 102.3 611.471 102.3H640.071C641.838 102.3 643.271 103.733 643.271 105.5V105.5C643.271 107.267 641.838 108.7 640.071 108.7H636.321C632.482 108.7 629.371 111.812 629.371 115.65V158.95C629.371 162.788 632.482 165.9 636.321 165.9H640.071C641.838 165.9 643.271 167.333 643.271 169.1V169.1C643.271 170.867 641.838 172.3 640.071 172.3H611.471Z" fill="white"/>
<path d="M703.081 173.6C699.614 173.6 696.514 172.8 693.781 171.2C691.047 169.533 688.914 167.3 687.381 164.5C685.847 161.633 685.081 158.4 685.081 154.8V118.7C685.081 116.567 684.581 114.667 683.581 113C682.581 111.267 681.247 109.933 679.581 109C677.981 108 676.181 107.5 674.181 107.5C672.181 107.5 670.347 108 668.681 109C667.014 109.933 665.681 111.267 664.681 113C663.681 114.667 663.181 116.567 663.181 118.7V168.7C663.181 170.688 661.569 172.3 659.581 172.3V172.3C657.592 172.3 655.981 170.688 655.981 168.7V119.8C655.981 116.133 656.747 112.9 658.281 110.1C659.814 107.3 661.947 105.1 664.681 103.5C667.414 101.833 670.581 101 674.181 101C677.714 101 680.847 101.833 683.581 103.5C686.314 105.1 688.447 107.3 689.981 110.1C691.581 112.9 692.381 116.133 692.381 119.8V155.9C692.381 158.1 692.881 160.033 693.881 161.7C694.881 163.367 696.181 164.7 697.781 165.7C699.381 166.633 701.147 167.1 703.081 167.1C705.014 167.1 706.781 166.633 708.381 165.7C709.981 164.7 711.247 163.367 712.181 161.7C713.114 160.033 713.581 158.1 713.581 155.9V105.9C713.581 103.912 715.192 102.3 717.181 102.3V102.3C719.169 102.3 720.781 103.912 720.781 105.9V154.8C720.781 158.4 720.047 161.633 718.581 164.5C717.114 167.3 715.047 169.533 712.381 171.2C709.714 172.8 706.614 173.6 703.081 173.6Z" fill="white"/>
<path d="M788.866 194.5C785.799 194.5 782.999 193.833 780.466 192.5C777.999 191.233 776.032 189.333 774.566 186.8C773.166 184.333 772.466 181.3 772.466 177.7C772.466 176.9 772.499 176.033 772.566 175.1V175.1C772.668 173.77 771.585 172.612 770.252 172.65C765.756 172.781 761.493 172.231 757.466 171C752.666 169.533 748.432 167.2 744.766 164C741.099 160.8 738.232 156.933 736.166 152.4C734.099 147.8 733.066 142.633 733.066 136.9C733.066 131.967 733.899 127.333 735.566 123C737.299 118.667 739.732 114.867 742.866 111.6C745.999 108.267 749.766 105.667 754.166 103.8C758.566 101.933 763.466 101 768.866 101C774.332 101 779.266 101.933 783.666 103.8C788.066 105.6 791.832 108.133 794.966 111.4C798.099 114.667 800.499 118.467 802.166 122.8C803.833 127.067 804.666 131.633 804.666 136.5V177C804.666 180.667 803.999 183.8 802.666 186.4C801.399 189 799.566 191 797.166 192.4C794.766 193.8 791.999 194.5 788.866 194.5ZM788.366 187.8C790.899 187.8 793.032 186.933 794.766 185.2C796.566 183.467 797.466 180.833 797.466 177.3V161.51C797.466 156.498 792.01 153.359 788.366 156.8V156.8C786.032 159 784.199 161.267 782.866 163.6C781.599 165.933 780.699 168.267 780.166 170.6C779.632 172.867 779.366 175 779.366 177C779.366 179.333 779.766 181.3 780.566 182.9C781.432 184.567 782.566 185.8 783.966 186.6C785.366 187.4 786.832 187.8 788.366 187.8ZM768.866 166.3C770.066 166.3 771.132 166.267 772.066 166.2V166.2C773.991 165.925 775.552 164.564 776.39 162.81C777.16 161.199 778.085 159.562 779.166 157.9C780.966 155.233 783.333 152.633 786.266 150.1C788.135 148.48 790.289 146.912 792.727 145.395C795.574 143.626 797.466 140.599 797.466 137.247V136.5C797.466 132.367 796.732 128.533 795.266 125C793.866 121.467 791.866 118.4 789.266 115.8C786.732 113.133 783.733 111.1 780.266 109.7C776.799 108.233 772.999 107.5 768.866 107.5C764.799 107.5 760.999 108.233 757.466 109.7C753.999 111.167 750.966 113.233 748.366 115.9C745.832 118.5 743.832 121.6 742.366 125.2C740.966 128.8 740.266 132.7 740.266 136.9C740.266 141.1 740.966 145 742.366 148.6C743.832 152.2 745.832 155.333 748.366 158C750.966 160.6 753.999 162.633 757.466 164.1C760.999 165.567 764.799 166.3 768.866 166.3Z" fill="white"/>
<path d="M306.082 272.3C302.873 272.3 300.673 269.066 301.852 266.081L324.246 209.393C325.604 205.957 328.923 203.7 332.617 203.7H332.882C336.572 203.7 339.889 205.952 341.249 209.383L363.599 265.753C364.845 268.893 362.531 272.3 359.152 272.3V272.3C357.187 272.3 355.422 271.098 354.701 269.27L351.442 261C350.086 257.561 346.766 255.3 343.069 255.3H321.956C318.242 255.3 314.91 257.581 313.566 261.043L310.322 269.398C309.643 271.147 307.959 272.3 306.082 272.3V272.3ZM323.691 234.925C321.386 240.827 325.738 247.2 332.074 247.2H332.874C339.195 247.2 343.546 240.855 341.27 234.959L337.696 225.7C337.496 225.1 337.196 224.267 336.796 223.2C336.396 222.133 335.962 220.967 335.496 219.7C335.029 218.367 334.562 217.033 334.096 215.7C333.667 214.415 333.267 213.243 332.895 212.183C332.835 212.013 332.675 211.9 332.496 211.9V211.9C332.316 211.9 332.156 212.014 332.096 212.183C331.654 213.449 331.153 214.888 330.596 216.5C329.996 218.233 329.396 219.933 328.796 221.6C328.196 223.2 327.696 224.567 327.296 225.7L323.691 234.925Z" fill="white"/>
<path d="M403.46 272.3C398.489 272.3 394.46 268.271 394.46 263.3V212.7C394.46 207.729 398.489 203.7 403.46 203.7H429.86C433.793 203.7 437.193 204.4 440.06 205.8C442.926 207.133 445.126 209.033 446.66 211.5C448.26 213.967 449.06 216.9 449.06 220.3C449.06 222.9 448.593 225.3 447.66 227.5C446.726 229.7 445.426 231.533 443.76 233C442.139 234.426 440.299 235.505 438.237 236.238C438.131 236.276 438.06 236.376 438.06 236.488V236.488C438.06 236.612 438.146 236.719 438.266 236.747C440.584 237.289 442.682 238.24 444.56 239.6C446.493 241 448.026 242.867 449.16 245.2C450.36 247.467 450.96 250.267 450.96 253.6C450.96 258.067 450.026 261.667 448.16 264.4C446.293 267.133 443.793 269.133 440.66 270.4C437.526 271.667 433.926 272.3 429.86 272.3H403.46ZM403.96 255.1C403.96 260.071 407.989 264.1 412.96 264.1H429.76C433.16 264.1 435.926 263.233 438.06 261.5C440.193 259.7 441.26 256.733 441.26 252.6C441.26 250.067 440.793 247.967 439.86 246.3C438.926 244.567 437.56 243.3 435.76 242.5C433.96 241.633 431.693 241.2 428.96 241.2H412.96C407.989 241.2 403.96 245.229 403.96 250.2V255.1ZM403.96 224.1C403.96 229.071 407.989 233.1 412.96 233.1H428.06C430.326 233.1 432.293 232.667 433.96 231.8C435.626 230.867 436.926 229.6 437.86 228C438.86 226.333 439.36 224.467 439.36 222.4C439.36 218.8 438.393 216.167 436.46 214.5C434.526 212.767 431.96 211.9 428.76 211.9H412.96C407.989 211.9 403.96 215.929 403.96 220.9V224.1Z" fill="white"/>
<path d="M482.071 272.3C478.861 272.3 476.661 269.066 477.841 266.081L500.235 209.393C501.592 205.957 504.911 203.7 508.605 203.7H508.871C512.561 203.7 515.877 205.952 517.237 209.383L539.588 265.753C540.833 268.893 538.519 272.3 535.141 272.3V272.3C533.175 272.3 531.41 271.098 530.69 269.27L527.43 261C526.075 257.561 522.754 255.3 519.057 255.3H497.944C494.231 255.3 490.898 257.581 489.554 261.043L486.31 269.398C485.631 271.147 483.947 272.3 482.071 272.3V272.3ZM499.68 234.925C497.374 240.827 501.726 247.2 508.063 247.2H508.862C515.183 247.2 519.534 240.855 517.258 234.959L513.684 225.7C513.484 225.1 513.184 224.267 512.784 223.2C512.384 222.133 511.95 220.967 511.484 219.7C511.017 218.367 510.55 217.033 510.084 215.7C509.656 214.415 509.255 213.243 508.883 212.183C508.824 212.013 508.664 211.9 508.484 211.9V211.9C508.304 211.9 508.144 212.014 508.085 212.183C507.642 213.449 507.142 214.888 506.584 216.5C505.984 218.233 505.384 219.933 504.784 221.6C504.184 223.2 503.684 224.567 503.284 225.7L499.68 234.925Z" fill="white"/>
<path d="M598.478 273.5C591.478 273.5 585.545 272.233 580.678 269.7C575.812 267.1 572.078 263.2 569.478 258C566.945 252.733 565.678 246.067 565.678 238C565.678 226.067 568.578 217.167 574.378 211.3C580.178 205.433 588.245 202.5 598.578 202.5C604.445 202.5 609.645 203.467 614.178 205.4C618.712 207.267 622.245 210.133 624.778 214C626.626 216.7 627.817 219.905 628.352 223.615C628.73 226.239 626.529 228.4 623.878 228.4V228.4C621.227 228.4 619.166 226.223 618.599 223.633C618.174 221.694 617.467 219.983 616.478 218.5C614.812 215.9 612.445 213.967 609.378 212.7C606.312 211.367 602.712 210.7 598.578 210.7C593.778 210.7 589.645 211.633 586.178 213.5C582.712 215.367 580.078 218.267 578.278 222.2C576.478 226.067 575.578 231.067 575.578 237.2V239.3C575.578 245.367 576.478 250.333 578.278 254.2C580.078 258 582.678 260.8 586.078 262.6C589.545 264.4 593.712 265.3 598.578 265.3C602.845 265.3 606.512 264.667 609.578 263.4C612.712 262.133 615.112 260.2 616.778 257.6C617.795 256.036 618.513 254.243 618.934 252.221C619.456 249.706 621.46 247.6 624.028 247.6V247.6C626.596 247.6 628.726 249.693 628.378 252.237C627.847 256.12 626.614 259.441 624.678 262.2C622.078 266 618.512 268.833 613.978 270.7C609.445 272.567 604.278 273.5 598.478 273.5Z" fill="white"/>
<path d="M778.277 273.5C774.543 273.5 770.943 273.133 767.477 272.4C764.077 271.667 761.043 270.5 758.377 268.9C755.71 267.233 753.577 265.1 751.977 262.5C750.443 259.9 749.677 256.7 749.677 252.9C749.677 252.597 749.677 252.294 749.677 251.991C749.677 251.93 749.683 251.869 749.694 251.81V251.81C749.785 251.312 750.187 250.9 750.693 250.9H758.438C758.956 250.9 759.361 251.295 759.29 251.809V251.809C759.283 251.853 759.277 251.922 759.277 251.967C759.277 252.341 759.277 252.685 759.277 253C759.277 255.667 760.077 257.933 761.677 259.8C763.277 261.667 765.477 263.067 768.277 264C771.143 264.867 774.377 265.3 777.977 265.3C779.577 265.3 781.243 265.2 782.977 265C784.777 264.8 786.477 264.467 788.077 264C789.743 263.467 791.21 262.8 792.477 262C793.81 261.133 794.843 260.1 795.577 258.9C796.377 257.633 796.777 256.1 796.777 254.3C796.777 252.033 796.11 250.167 794.777 248.7C793.51 247.167 791.81 245.933 789.677 245C787.543 244 785.11 243.133 782.377 242.4C779.71 241.6 776.943 240.833 774.077 240.1C771.21 239.367 768.41 238.533 765.677 237.6C763.01 236.6 760.61 235.4 758.477 234C756.343 232.533 754.61 230.733 753.277 228.6C752.01 226.467 751.377 223.867 751.377 220.8C751.377 217.933 751.943 215.367 753.077 213.1C754.277 210.833 756.01 208.933 758.277 207.4C760.61 205.8 763.477 204.6 766.877 203.8C770.277 202.933 774.177 202.5 778.577 202.5C782.177 202.5 785.51 202.9 788.577 203.7C791.71 204.433 794.443 205.6 796.777 207.2C799.177 208.733 801.043 210.7 802.377 213.1C803.71 215.5 804.377 218.4 804.377 221.8V221.8C804.377 222.463 803.84 223 803.177 223H796.477C795.648 223 794.977 222.328 794.977 221.5V221.5C794.977 219.233 794.277 217.3 792.877 215.7C791.477 214.1 789.543 212.867 787.077 212C784.677 211.133 781.943 210.7 778.877 210.7C774.877 210.7 771.543 211.1 768.877 211.9C766.21 212.633 764.21 213.733 762.877 215.2C761.61 216.6 760.977 218.2 760.977 220C760.977 222.067 761.61 223.8 762.877 225.2C764.21 226.6 765.943 227.767 768.077 228.7C770.21 229.567 772.643 230.367 775.377 231.1C778.11 231.833 780.877 232.6 783.677 233.4C786.543 234.133 789.31 235 791.977 236C794.71 236.933 797.143 238.133 799.277 239.6C801.477 241 803.21 242.8 804.477 245C805.743 247.133 806.377 249.767 806.377 252.9C806.377 257.767 805.177 261.733 802.777 264.8C800.377 267.8 797.077 270 792.877 271.4C788.677 272.8 783.81 273.5 778.277 273.5Z" fill="white"/>
<path d="M492.014 118.7C492.014 116.567 491.514 114.667 490.514 113C489.514 111.267 488.181 109.933 486.514 109C484.914 108 483.114 107.5 481.114 107.5C479.114 107.5 477.281 108 475.614 109C473.948 109.933 472.614 111.267 471.614 113C470.614 114.667 470.114 116.567 470.114 118.7V168.7C470.114 170.688 468.502 172.3 466.514 172.3V172.3C464.526 172.3 462.914 170.688 462.914 168.7V119.8C462.914 116.133 463.681 112.9 465.214 110.1C466.748 107.3 468.881 105.1 471.614 103.5C474.348 101.833 477.514 101 481.114 101C484.648 101 487.781 101.833 490.514 103.5C493.248 105.1 495.381 107.3 496.914 110.1C498.514 112.9 499.314 116.133 499.314 119.8V127.85C499.314 129.866 497.68 131.5 495.664 131.5V131.5C493.648 131.5 492.014 129.866 492.014 127.85V118.7Z" fill="white"/>
<path d="M510.014 173.6C506.548 173.6 503.448 172.8 500.714 171.2C497.981 169.533 495.848 167.3 494.314 164.5C492.781 161.633 492.014 158.4 492.014 154.8V148.15C492.014 146.134 493.648 144.5 495.664 144.5V144.5C497.68 144.5 499.314 146.134 499.314 148.15V155.9C499.314 158.1 499.814 160.033 500.814 161.7C501.814 163.367 503.114 164.7 504.714 165.7C506.314 166.633 508.081 167.1 510.014 167.1C511.948 167.1 513.714 166.633 515.314 165.7C516.914 164.7 518.181 163.367 519.114 161.7C520.048 160.033 520.514 158.1 520.514 155.9V105.9C520.514 103.912 522.126 102.3 524.114 102.3V102.3C526.102 102.3 527.714 103.912 527.714 105.9V154.8C527.714 158.4 526.981 161.633 525.514 164.5C524.048 167.3 521.981 169.533 519.314 171.2C516.648 172.8 513.548 173.6 510.014 173.6Z" fill="white"/>
<path d="M660.732 246.3V207.95C660.732 205.603 662.635 203.7 664.982 203.7V203.7C667.329 203.7 669.232 205.603 669.232 207.95V247.3C669.232 253.3 671.832 257.8 675.032 260.8C678.299 263.8 682.866 265.3 688.732 265.3C694.666 265.3 699.299 263.8 702.632 260.8C705.966 257.8 707.632 253.3 707.632 247.3V208.4C707.632 205.804 709.736 203.7 712.332 203.7V203.7C714.928 203.7 717.032 205.804 717.032 208.4V246.3V264.5C717.032 269.471 713.003 273.5 708.032 273.5H688.732H669.732C664.762 273.5 660.732 269.471 660.732 264.5V246.3Z" fill="white"/>
<circle cx="495.5" cy="137.5" r="3.5" fill="white"/>
<circle cx="688.5" cy="237.5" r="5.5" fill="white"/>
</svg>
