<svg width="780" height="207" viewBox="0 0 780 207" fill="none" xmlns="http://www.w3.org/2000/svg">
<path d="M253.129 89.315C249.263 89.315 245.907 88.5126 243.062 86.9077C240.218 85.23 238.029 82.9321 236.497 80.0143C234.965 77.0964 234.199 73.7773 234.199 70.057V30.1231C234.199 24.3797 229.543 19.7237 223.8 19.7237H213.41C211.476 19.7237 209.908 18.156 209.908 16.2222C209.908 14.2884 211.476 12.7208 213.41 12.7208H262.867C264.801 12.7208 266.369 14.2884 266.369 16.2222C266.369 18.156 264.801 19.7237 262.867 19.7237H252.477C246.734 19.7237 242.078 24.3797 242.078 30.1231V71.1512C242.078 74.3609 243.062 77.0234 245.032 79.1389C247.075 81.2543 249.81 82.3121 253.239 82.3121H254.552C256.485 82.3121 258.053 83.8797 258.053 85.8135C258.053 87.7473 256.485 89.315 254.552 89.315H253.129Z" fill="white"/>
<path d="M281.941 89.315C279.765 89.315 278.002 87.5514 278.002 85.3759V16.7693C278.002 14.5938 279.765 12.8302 281.941 12.8302C284.116 12.8302 285.88 14.5938 285.88 16.7693V36.4605C285.88 42.2039 290.536 46.8599 296.279 46.8599H319.358C325.101 46.8599 329.757 42.2039 329.757 36.4605V16.7693C329.757 14.5938 331.521 12.8302 333.696 12.8302C335.872 12.8302 337.636 14.5938 337.636 16.7693V85.3759C337.636 87.5514 335.872 89.315 333.696 89.315C331.521 89.315 329.757 87.5514 329.757 85.3759V64.2622C329.757 58.5188 325.101 53.8628 319.358 53.8628H296.279C290.536 53.8628 285.88 58.5188 285.88 64.2622V85.3759C285.88 87.5514 284.116 89.315 281.941 89.315Z" fill="white"/>
<path d="M355.485 89.315C353.551 89.315 351.983 87.7473 351.983 85.8135C351.983 83.8797 353.551 82.3121 355.485 82.3121H359.588C363.788 82.3121 367.193 78.9073 367.193 74.7074V27.3284C367.193 23.1284 363.788 19.7237 359.588 19.7237H355.485C353.551 19.7237 351.983 18.156 351.983 16.2222C351.983 14.2884 353.551 12.7208 355.485 12.7208H386.779C388.713 12.7208 390.28 14.2884 390.28 16.2222C390.28 18.156 388.713 19.7237 386.779 19.7237H382.676C378.476 19.7237 375.071 23.1284 375.071 27.3284V74.7074C375.071 78.9073 378.476 82.3121 382.676 82.3121H386.779C388.713 82.3121 390.28 83.8797 390.28 85.8135C390.28 87.7473 388.713 89.315 386.779 89.315H355.485Z" fill="white"/>
<path d="M495.865 89.315C493.69 89.315 491.926 87.5514 491.926 85.3759V16.6599C491.926 14.4844 493.69 12.7208 495.865 12.7208C498.041 12.7208 499.805 14.4844 499.805 16.6599V38.2112C499.805 43.9546 504.461 48.6106 510.204 48.6106H522.345C525.847 48.6106 528.947 47.9906 531.646 46.7505C534.418 45.4374 536.606 43.6138 538.211 41.2795C539.889 38.9452 540.728 36.1367 540.728 32.8541V16.7146C540.728 14.5089 542.516 12.7208 544.721 12.7208C546.927 12.7208 548.715 14.5089 548.715 16.7146V32.7447C548.715 37.6321 547.402 41.863 544.776 45.4374C544.261 46.1384 543.713 46.8029 543.13 47.4309C539.138 51.7359 536.152 57.7961 538.424 63.2096L544.557 77.8258C545.214 79.4307 545.98 80.5614 546.855 81.2179C547.731 81.8744 548.934 82.2027 550.466 82.2027H551.505C553.47 82.2027 555.062 83.7948 555.062 85.7588C555.062 87.7228 553.47 89.315 551.505 89.315H549.372C546.381 89.315 543.901 88.6584 541.931 87.3454C539.962 85.9594 538.43 83.9534 537.336 81.3273L527.499 57.8184C526.85 56.2658 525.227 55.375 523.549 55.5041C522.6 55.5771 521.616 55.6135 520.594 55.6135H510.204C504.461 55.6135 499.805 60.2695 499.805 66.013V85.3759C499.805 87.5514 498.041 89.315 495.865 89.315Z" fill="white"/>
<path d="M566.738 89.315C564.804 89.315 563.237 87.7473 563.237 85.8135C563.237 83.8797 564.804 82.3121 566.738 82.3121H570.841C575.041 82.3121 578.446 78.9073 578.446 74.7074V27.3284C578.446 23.1284 575.041 19.7237 570.841 19.7237H566.738C564.804 19.7237 563.237 18.156 563.237 16.2222C563.237 14.2884 564.804 12.7208 566.738 12.7208H598.032C599.966 12.7208 601.534 14.2884 601.534 16.2222C601.534 18.156 599.966 19.7237 598.032 19.7237H593.929C589.729 19.7237 586.324 23.1284 586.324 27.3284V74.7074C586.324 78.9073 589.729 82.3121 593.929 82.3121H598.032C599.966 82.3121 601.534 83.8797 601.534 85.8135C601.534 87.7473 599.966 89.315 598.032 89.315H566.738Z" fill="white"/>
<path d="M666.978 90.7374C663.185 90.7374 659.793 89.8621 656.802 88.1114C653.811 86.2877 651.477 83.844 649.799 80.7802C648.121 77.6435 647.282 74.1056 647.282 70.1664V30.6657C647.282 28.3314 646.735 26.2524 645.641 24.4287C644.547 22.5321 643.088 21.0732 641.264 20.0519C639.513 18.9577 637.544 18.4106 635.355 18.4106C633.167 18.4106 631.161 18.9577 629.337 20.0519C627.514 21.0732 626.055 22.5321 624.961 24.4287C623.866 26.2524 623.319 28.3314 623.319 30.6657V85.3758C623.319 87.5514 621.556 89.315 619.38 89.315C617.205 89.315 615.441 87.5514 615.441 85.3758V31.8693C615.441 27.8572 616.28 24.3193 617.958 21.2556C619.635 18.1918 621.97 15.7845 624.961 14.0338C627.951 12.2101 631.416 11.2983 635.355 11.2983C639.222 11.2983 642.65 12.2101 645.641 14.0338C648.632 15.7845 650.966 18.1918 652.644 21.2556C654.395 24.3193 655.27 27.8572 655.27 31.8693V71.37C655.27 73.7773 655.817 75.8928 656.911 77.7164C658.005 79.5401 659.428 80.999 661.179 82.0932C662.929 83.1145 664.862 83.6251 666.978 83.6251C669.093 83.6251 671.026 83.1145 672.777 82.0932C674.528 80.999 675.914 79.5401 676.935 77.7164C677.956 75.8928 678.467 73.7773 678.467 71.37V16.6599C678.467 14.4844 680.231 12.7208 682.406 12.7208C684.582 12.7208 686.345 14.4844 686.345 16.6599V70.1664C686.345 74.1056 685.543 77.6435 683.938 80.7802C682.333 83.844 680.072 86.2877 677.154 88.1114C674.236 89.8621 670.844 90.7374 666.978 90.7374Z" fill="white"/>
<path d="M760.844 113.606C757.488 113.606 754.425 112.877 751.653 111.418C748.954 110.032 746.802 107.953 745.197 105.181C743.665 102.482 742.899 99.1628 742.899 95.2237C742.899 94.3483 742.936 93.4 743.008 92.3787C743.12 90.9239 741.936 89.6558 740.477 89.6982C735.557 89.841 730.893 89.2391 726.486 87.8925C721.234 86.2877 716.602 83.7345 712.59 80.2331C708.578 76.7316 705.441 72.5007 703.18 67.5403C700.918 62.507 699.788 56.8536 699.788 50.5802C699.788 45.1821 700.699 40.1123 702.523 35.3708C704.42 30.6292 707.082 26.4713 710.511 22.8969C713.939 19.2495 718.061 16.4046 722.875 14.3621C727.69 12.3196 733.051 11.2983 738.96 11.2983C744.942 11.2983 750.34 12.3196 755.154 14.3621C759.969 16.3316 764.09 19.1036 767.519 22.678C770.947 26.2524 773.573 30.4104 775.397 35.1519C777.221 39.8205 778.132 44.8174 778.132 50.1425V94.4577C778.132 98.4698 777.403 101.898 775.944 104.743C774.558 107.588 772.552 109.777 769.926 111.308C767.3 112.84 764.272 113.606 760.844 113.606ZM760.297 106.275C763.069 106.275 765.403 105.327 767.3 103.43C769.269 101.534 770.254 98.6522 770.254 94.786V77.5088C770.254 72.0247 764.284 68.5893 760.297 72.3548C757.744 74.7621 755.738 77.2423 754.279 79.7954C752.893 82.3486 751.908 84.9017 751.324 87.4548C750.741 89.935 750.449 92.2693 750.449 94.4577C750.449 97.0109 750.887 99.1628 751.762 100.914C752.71 102.737 753.95 104.087 755.482 104.962C757.014 105.837 758.619 106.275 760.297 106.275ZM738.96 82.7498C740.273 82.7498 741.44 82.7133 742.461 82.6403C744.568 82.3395 746.276 80.8502 747.193 78.9306C748.036 77.1682 749.048 75.3775 750.23 73.5585C752.2 70.6406 754.789 67.7956 757.999 65.0237C759.972 63.3141 762.234 61.6573 764.786 60.0532C768.064 57.9922 770.254 54.4988 770.254 50.6262V50.1425C770.254 45.6198 769.452 41.4254 767.847 37.5592C766.315 33.693 764.127 30.3374 761.282 27.4925C758.51 24.5746 755.227 22.3498 751.434 20.8179C747.641 19.213 743.483 18.4106 738.96 18.4106C734.51 18.4106 730.352 19.213 726.486 20.8179C722.693 22.4227 719.374 24.6841 716.529 27.6019C713.757 30.4469 711.569 33.8389 709.964 37.778C708.432 41.7172 707.666 45.9845 707.666 50.5802C707.666 55.1758 708.432 59.4432 709.964 63.3824C711.569 67.3215 713.757 70.75 716.529 73.6679C719.374 76.5128 722.693 78.7377 726.486 80.3425C730.352 81.9473 734.51 82.7498 738.96 82.7498Z" fill="white"/>
<path d="M232.582 198.735C229.071 198.735 226.664 195.196 227.954 191.93L252.404 130.038C253.921 126.197 257.632 123.673 261.762 123.673C265.887 123.673 269.594 126.191 271.115 130.026L295.517 191.571C296.88 195.007 294.348 198.735 290.651 198.735C288.501 198.735 286.57 197.42 285.781 195.42L282.352 186.72C280.786 182.746 276.949 180.134 272.677 180.134H250.329C246.038 180.134 242.187 182.769 240.634 186.77L237.221 195.56C236.478 197.474 234.636 198.735 232.582 198.735ZM252.01 157.431C249.41 164.085 254.317 171.271 261.461 171.271C268.587 171.271 273.494 164.117 270.927 157.469L267.173 147.745C266.955 147.089 266.626 146.177 266.189 145.01C265.751 143.843 265.277 142.566 264.766 141.18C264.255 139.721 263.745 138.262 263.234 136.803C262.766 135.398 262.328 134.115 261.921 132.955C261.856 132.769 261.68 132.645 261.484 132.645C261.287 132.645 261.112 132.77 261.047 132.956C260.562 134.341 260.015 135.915 259.405 137.679C258.748 139.575 258.091 141.436 257.435 143.259C256.778 145.01 256.231 146.505 255.794 147.745L252.01 157.431Z" fill="white"/>
<path d="M339.684 198.735C333.941 198.735 329.285 194.079 329.285 188.336V134.072C329.285 128.329 333.941 123.673 339.684 123.673H368.019C372.323 123.673 376.043 124.439 379.18 125.971C382.317 127.43 384.724 129.509 386.402 132.208C388.153 134.907 389.028 138.116 389.028 141.837C389.028 144.682 388.517 147.308 387.496 149.715C386.475 152.122 385.052 154.128 383.229 155.733C381.456 157.293 379.442 158.474 377.186 159.276C377.07 159.317 376.992 159.427 376.992 159.55C376.992 159.685 377.086 159.802 377.218 159.833C379.754 160.426 382.049 161.467 384.104 162.955C386.219 164.487 387.897 166.529 389.137 169.082C390.45 171.563 391.107 174.626 391.107 178.274C391.107 183.161 390.086 187.1 388.043 190.091C386.001 193.082 383.265 195.27 379.837 196.656C376.408 198.042 372.469 198.735 368.019 198.735H339.684ZM339.68 179.363C339.68 185.107 344.335 189.763 350.079 189.763H367.91C371.63 189.763 374.657 188.814 376.992 186.918C379.326 184.948 380.493 181.702 380.493 177.179C380.493 174.407 379.983 172.11 378.961 170.286C377.94 168.389 376.445 167.003 374.475 166.128C372.506 165.18 370.025 164.706 367.035 164.706H350.079C344.335 164.706 339.68 169.362 339.68 175.105V179.363ZM339.68 145.443C339.68 151.187 344.335 155.842 350.079 155.842H366.05C368.53 155.842 370.682 155.368 372.505 154.42C374.329 153.399 375.752 152.013 376.773 150.262C377.867 148.438 378.414 146.396 378.414 144.135C378.414 140.195 377.356 137.314 375.241 135.49C373.126 133.594 370.317 132.645 366.816 132.645H350.079C344.335 132.645 339.68 137.301 339.68 143.045V145.443Z" fill="white"/>
<path d="M425.149 198.735C421.637 198.735 419.23 195.196 420.52 191.93L444.97 130.038C446.488 126.197 450.198 123.673 454.328 123.673C458.453 123.673 462.161 126.191 463.681 130.026L488.084 191.571C489.446 195.007 486.914 198.735 483.218 198.735C481.067 198.735 479.136 197.42 478.348 195.42L474.919 186.72C473.353 182.746 469.515 180.134 465.244 180.134H442.895C438.604 180.134 434.754 182.769 433.201 186.77L429.788 195.56C429.045 197.474 427.202 198.735 425.149 198.735ZM444.576 157.431C441.976 164.085 446.883 171.271 454.027 171.271C461.154 171.271 466.06 164.117 463.494 157.469L459.74 147.745C459.521 147.089 459.193 146.177 458.755 145.01C458.317 143.843 457.843 142.566 457.333 141.18C456.822 139.721 456.311 138.262 455.801 136.803C455.332 135.398 454.894 134.115 454.487 132.955C454.422 132.769 454.247 132.645 454.05 132.645C453.853 132.645 453.678 132.77 453.613 132.956C453.129 134.341 452.581 135.915 451.971 137.679C451.314 139.575 450.658 141.436 450.001 143.259C449.345 145.01 448.798 146.505 448.36 147.745L444.576 157.431Z" fill="white"/>
<path d="M552.522 200.048C544.863 200.048 538.37 198.662 533.045 195.89C527.72 193.045 523.635 188.778 520.79 183.088C518.018 177.325 516.632 170.031 516.632 161.204C516.632 148.147 519.805 138.408 526.152 131.989C532.498 125.57 541.325 122.36 552.631 122.36C559.051 122.36 564.74 123.418 569.701 125.533C574.661 127.576 578.527 130.712 581.299 134.943C583.321 137.898 584.624 141.404 585.209 145.464C585.623 148.335 583.215 150.7 580.315 150.7C577.414 150.7 575.158 148.317 574.538 145.484C574.073 143.362 573.299 141.49 572.218 139.867C570.394 137.022 567.804 134.907 564.449 133.521C561.093 132.062 557.154 131.332 552.631 131.332C547.379 131.332 542.857 132.354 539.063 134.396C535.27 136.439 532.389 139.612 530.419 143.916C528.45 148.147 527.465 153.618 527.465 160.329V162.627C527.465 169.265 528.45 174.699 530.419 178.93C532.389 183.088 535.234 186.152 538.954 188.121C542.747 190.091 547.306 191.076 552.631 191.076C557.3 191.076 561.312 190.383 564.668 188.997C568.096 187.611 570.722 185.495 572.546 182.65C573.658 180.939 574.444 178.977 574.904 176.765C575.476 174.013 577.669 171.708 580.479 171.708C583.289 171.708 585.619 173.998 585.238 176.782C584.658 181.031 583.308 184.665 581.19 187.684C578.345 191.842 574.442 194.942 569.482 196.985C564.522 199.027 558.868 200.048 552.522 200.048Z" fill="white"/>
<path d="M749.257 200.048C745.172 200.048 741.233 199.647 737.44 198.845C733.72 198.042 730.401 196.766 727.483 195.015C724.565 193.191 722.231 190.857 720.48 188.012C718.802 185.167 717.963 181.666 717.963 177.508C717.963 177.176 717.963 176.844 717.963 176.513C717.963 176.447 717.97 176.38 717.982 176.315C718.081 175.77 718.521 175.319 719.075 175.319H727.55C728.117 175.319 728.56 175.752 728.482 176.314C728.475 176.362 728.468 176.438 728.468 176.487C728.468 176.896 728.468 177.273 728.468 177.617C728.468 180.535 729.343 183.015 731.094 185.058C732.844 187.1 735.252 188.632 738.315 189.653C741.452 190.602 744.99 191.076 748.929 191.076C750.68 191.076 752.504 190.966 754.4 190.748C756.37 190.529 758.23 190.164 759.981 189.653C761.804 189.07 763.409 188.34 764.795 187.465C766.254 186.517 767.385 185.386 768.187 184.073C769.062 182.687 769.5 181.009 769.5 179.04C769.5 176.559 768.771 174.517 767.312 172.912C765.926 171.234 764.066 169.885 761.731 168.864C759.397 167.769 756.734 166.821 753.744 166.019C750.826 165.143 747.798 164.304 744.662 163.502C741.525 162.7 738.461 161.788 735.47 160.766C732.553 159.672 729.927 158.359 727.592 156.827C725.258 155.222 723.361 153.253 721.902 150.919C720.516 148.584 719.823 145.739 719.823 142.384C719.823 139.247 720.444 136.439 721.684 133.958C722.997 131.478 724.893 129.399 727.373 127.721C729.927 125.971 733.063 124.658 736.784 123.782C740.504 122.834 744.771 122.36 749.586 122.36C753.525 122.36 757.172 122.798 760.528 123.673C763.956 124.475 766.947 125.752 769.5 127.503C772.126 129.18 774.169 131.332 775.628 133.958C777.087 136.585 777.816 139.758 777.816 143.478C777.816 144.203 777.228 144.791 776.503 144.791H769.172C768.265 144.791 767.531 144.056 767.531 143.15C767.531 140.67 766.765 138.554 765.233 136.803C763.701 135.053 761.585 133.703 758.886 132.755C756.26 131.807 753.269 131.332 749.914 131.332C745.537 131.332 741.89 131.77 738.972 132.645C736.054 133.448 733.866 134.651 732.407 136.256C731.021 137.788 730.328 139.539 730.328 141.508C730.328 143.77 731.021 145.666 732.407 147.198C733.866 148.73 735.762 150.007 738.097 151.028C740.431 151.976 743.093 152.852 746.084 153.654C749.075 154.457 752.102 155.295 755.166 156.171C758.303 156.973 761.33 157.921 764.248 159.016C767.239 160.037 769.901 161.35 772.236 162.955C774.643 164.487 776.539 166.456 777.925 168.864C779.311 171.198 780.004 174.079 780.004 177.508C780.004 182.833 778.691 187.173 776.065 190.529C773.439 193.811 769.828 196.219 765.233 197.75C760.637 199.282 755.312 200.048 749.257 200.048Z" fill="white"/>
<path d="M436.029 30.6657C436.029 28.3314 435.482 26.2524 434.388 24.4287C433.293 22.5321 431.835 21.0732 430.011 20.0519C428.26 18.9577 426.291 18.4106 424.102 18.4106C421.914 18.4106 419.908 18.9577 418.084 20.0519C416.26 21.0732 414.801 22.5321 413.707 24.4287C412.613 26.2524 412.066 28.3314 412.066 30.6657V85.3759C412.066 87.5514 410.302 89.315 408.127 89.315C405.951 89.315 404.188 87.5514 404.188 85.3759V31.8693C404.188 27.8572 405.027 24.3193 406.704 21.2556C408.382 18.1918 410.716 15.7845 413.707 14.0338C416.698 12.2101 420.163 11.2983 424.102 11.2983C427.968 11.2983 431.397 12.2101 434.388 14.0338C437.378 15.7845 439.713 18.1918 441.391 21.2556C443.141 24.3193 444.017 27.8572 444.017 31.8693V40.6777C444.017 42.8834 442.228 44.6715 440.023 44.6715C437.817 44.6715 436.029 42.8834 436.029 40.6777V30.6657Z" fill="white"/>
<path d="M455.725 90.7374C451.931 90.7374 448.539 89.8621 445.548 88.1114C442.558 86.2877 440.223 83.844 438.546 80.7802C436.868 77.6435 436.029 74.1056 436.029 70.1664V62.8899C436.029 60.6842 437.817 58.8961 440.023 58.8961C442.228 58.8961 444.017 60.6842 444.017 62.8899V71.37C444.017 73.7773 444.564 75.8928 445.658 77.7164C446.752 79.5401 448.175 80.999 449.925 82.0932C451.676 83.1145 453.609 83.6251 455.725 83.6251C457.84 83.6251 459.773 83.1145 461.524 82.0932C463.275 80.999 464.661 79.5401 465.682 77.7164C466.703 75.8928 467.214 73.7773 467.214 71.37V16.6599C467.214 14.4844 468.977 12.7208 471.153 12.7208C473.328 12.7208 475.092 14.4844 475.092 16.6599V70.1664C475.092 74.1056 474.289 77.6435 472.685 80.7802C471.08 83.844 468.818 86.2877 465.901 88.1114C462.983 89.8621 459.591 90.7374 455.725 90.7374Z" fill="white"/>
<path d="M620.64 128.323C620.64 125.755 622.722 123.673 625.291 123.673C627.859 123.673 629.941 125.755 629.941 128.323V171.38C629.941 177.945 632.786 182.869 636.287 186.152C639.862 189.435 644.858 191.076 651.278 191.076C657.77 191.076 662.84 189.435 666.487 186.152C670.135 182.869 671.958 177.945 671.958 171.38V128.816C671.958 125.975 674.261 123.673 677.101 123.673C679.941 123.673 682.244 125.975 682.244 128.816V189.649C682.244 195.392 677.588 200.048 671.844 200.048H631.04C625.296 200.048 620.64 195.392 620.64 189.649V128.323Z" fill="white"/>
<path d="M443.675 51.2403C443.675 53.3554 441.96 55.07 439.845 55.07C437.73 55.07 436.016 53.3554 436.016 51.2403C436.016 49.1252 437.73 47.4106 439.845 47.4106C441.96 47.4106 443.675 49.1252 443.675 51.2403Z" fill="white"/>
<path d="M657.038 160.659C657.038 163.982 654.344 166.677 651.02 166.677C647.696 166.677 645.002 163.982 645.002 160.659C645.002 157.335 647.696 154.641 651.02 154.641C654.344 154.641 657.038 157.335 657.038 160.659Z" fill="white"/>
<path fill-rule="evenodd" clip-rule="evenodd" d="M155.811 99.4259C155.93 99.4248 156.052 99.4237 156.176 99.4226C156.184 99.4225 156.192 99.4224 156.2 99.4224C156.068 99.4236 155.938 99.4248 155.811 99.4259Z" fill="white"/>
<path fill-rule="evenodd" clip-rule="evenodd" d="M63.8973 161.206L63.6961 154.184L62.8309 152.453C62.4662 151.715 62.0515 151.046 61.5914 150.448C59.9446 148.31 57.715 147.089 55.1044 146.9C54.1789 146.84 52.8911 146.9 52.2472 147.021C50.7985 147.282 48.7261 148.288 47.9816 149.073C47.6798 149.395 47.3377 149.657 47.2371 149.657C47.1365 149.657 46.6737 149.335 46.231 148.932C45.7884 148.53 44.8226 147.906 44.0982 147.564C42.8507 146.98 42.6294 146.94 40.4563 146.94C38.2832 146.94 38.0619 146.98 36.8144 147.564C36.09 147.906 35.1242 148.53 34.6816 148.932C34.2389 149.335 33.7962 149.657 33.7158 149.657C33.6353 149.657 33.2127 149.355 32.7701 148.972C28.605 145.411 21.7437 146.457 18.6652 151.105C18.2829 151.689 17.7195 152.795 17.4177 153.56C16.9147 154.848 16.8744 155.21 16.8342 158.047C16.794 159.757 16.6934 161.206 16.5928 161.307V162.378V167.584C16.622 167.614 16.6608 167.989 16.6999 168.577C16.7413 169.2 16.783 170.062 16.8141 171.005C16.9549 175.552 17.4781 177.122 19.6512 179.436C21.0596 180.925 22.3071 181.689 24.0577 182.152C27.1362 182.937 30.2952 182.172 32.7701 180.019L33.4341 179.436L34.4804 180.281C35.0639 180.723 36.1102 181.387 36.8345 181.729C38.0217 182.293 38.3235 182.333 40.2551 182.333C42.7501 182.353 44.058 181.931 45.7079 180.583C45.9531 180.388 46.1955 180.193 46.4037 180.025L46.4062 180.023L46.407 180.023C46.6924 179.793 46.9144 179.614 46.9956 179.556C47.1767 179.415 47.4987 179.597 48.0218 180.1C51.5631 183.48 57.7805 183.098 61.181 179.275C61.4484 178.975 61.691 178.68 61.9105 178.384C63.3429 176.449 63.7967 174.446 63.7967 170.643V167.564L63.8973 161.206ZM30.094 155.532C29.7117 154.667 29.0879 153.942 28.3434 153.56C27.6996 153.218 25.8283 153.198 25.2649 153.52C24.3997 153.983 23.7357 154.807 23.454 155.773C23.2126 156.578 23.1522 158.329 23.1522 164.908C23.1522 170.421 23.2327 173.299 23.3735 173.822C24.0979 176.176 27.0959 177.001 29.0477 175.391L29.0646 175.377C30.3958 174.285 30.3958 174.285 30.3958 164.808C30.3958 157.564 30.3555 156.176 30.094 155.532ZM42.0861 153.6C42.7702 153.942 43.6354 154.968 43.8366 155.653C43.9171 155.954 43.9775 160.14 43.9775 164.989V173.761L43.3739 174.627C42.6093 175.693 41.6434 176.216 40.3959 176.216C39.2893 176.216 38.5649 175.894 37.8205 175.069C36.8748 174.043 36.8345 173.681 36.8345 164.506C36.8345 156.236 36.8546 155.854 37.2369 155.089C38.1021 153.379 40.3356 152.695 42.0861 153.6ZM57.0964 155.109C56.7946 154.506 56.3519 154.023 55.8288 153.741C54.2593 152.836 52.1466 153.238 51.1808 154.626C50.3357 155.834 50.3156 156.156 50.4565 165.089C50.46 165.325 50.4633 165.554 50.4666 165.778C50.568 172.657 50.5881 174.022 51.2678 174.834C51.436 175.035 51.6446 175.202 51.9047 175.411C51.9375 175.437 51.9712 175.464 52.0058 175.492C52.5893 175.975 52.9716 176.116 53.8972 176.156C55.366 176.256 56.2513 175.814 57.0562 174.506L57.6598 173.54L57.5793 156.015L57.0964 155.109Z" fill="white"/>
<path fill-rule="evenodd" clip-rule="evenodd" d="M76.2015 148.422C72.651 145.972 64.419 146.182 61.5914 150.448C61.3719 150.78 61.1849 151.135 61.0353 151.516C60.1449 155.364 60.1873 155.252 60.1449 158.235C60.1047 159.946 60.0041 161.394 59.9035 161.495V167.773C59.9638 167.833 60.0644 169.362 60.1248 171.193C60.2394 174.893 60.6071 176.622 61.9105 178.384C62.2091 178.787 62.5568 179.193 62.9619 179.624C64.3703 181.113 65.6178 181.878 67.3684 182.34C70.4469 183.125 73.6059 182.361 76.0808 180.208L76.7448 179.624C77.7407 178.763 79.2951 175.566 79.2951 172.643V168.716V162.378V155.962C78.8096 151.667 77.7106 149.328 76.2015 148.422ZM73.4047 155.72C73.0224 154.855 72.3986 154.131 71.6541 153.748C71.0103 153.406 69.139 153.386 68.5756 153.708C67.7104 154.171 67.0464 154.996 66.7647 155.962C66.5233 156.767 66.4629 158.517 66.4629 165.097C66.4629 170.61 66.5434 173.487 66.6843 174.01C67.4086 176.364 70.4066 177.189 72.3584 175.58L72.3753 175.566C72.626 175.36 72.8294 175.193 72.9946 174.994C73.7065 174.137 73.7065 172.689 73.7065 164.996C73.7065 157.753 73.6663 156.364 73.4047 155.72Z" fill="white"/>
<path fill-rule="evenodd" clip-rule="evenodd" d="M153.959 154.372L153.094 152.641C151.424 149.261 148.708 147.329 145.368 147.088C144.442 147.028 143.154 147.088 142.51 147.209C141.062 147.47 138.989 148.476 138.245 149.261C137.943 149.583 137.601 149.845 137.5 149.845C137.4 149.845 136.937 149.523 136.494 149.12C136.052 148.718 135.086 148.094 134.362 147.752C133.114 147.169 132.893 147.128 130.72 147.128C128.547 147.128 128.325 147.169 127.078 147.752C126.353 148.094 125.388 148.718 124.945 149.12C123.887 150.082 121.162 153.1 120.785 156.203C120.729 157.266 120.714 159.717 120.718 162.378H79.2951V168.716H120.753C120.769 170.626 120.785 171.964 120.785 171.964C120.837 174.299 121.169 175.708 122.369 178.302C122.973 179.207 125.312 181.36 127.098 181.918C128.084 182.226 130.066 182.517 130.518 182.521C133.013 182.541 134.321 182.119 135.971 180.771C136.218 180.575 136.461 180.379 136.67 180.211L136.671 180.21C136.956 179.981 137.178 179.802 137.259 179.744C137.44 179.604 137.762 179.785 138.285 180.288C141.826 183.668 148.044 183.286 151.444 179.463C153.456 177.209 154.06 175.217 154.06 170.831V168.716H153.669C151.919 168.716 150.5 167.297 150.5 165.547V165.547C150.5 163.796 151.919 162.378 153.669 162.378H154.145L154.161 161.394L153.959 154.372ZM134.1 155.841C133.899 155.157 133.034 154.13 132.349 153.788C130.599 152.883 128.365 153.567 127.5 155.277C127.118 156.042 127.098 156.424 127.098 164.694C127.098 173.869 127.138 174.231 128.084 175.257C128.828 176.082 129.553 176.404 130.659 176.404C131.907 176.404 132.873 175.881 133.637 174.815L134.241 173.95V165.177C134.241 160.328 134.18 156.142 134.1 155.841ZM147.36 155.297C147.058 154.694 146.615 154.211 146.092 153.929C144.523 153.024 142.41 153.426 141.444 154.814C140.599 156.022 140.579 156.344 140.72 165.277L140.73 165.966C140.831 172.845 140.851 174.21 141.531 175.022C141.699 175.223 141.908 175.39 142.168 175.599L142.171 175.601L142.269 175.68C142.853 176.163 143.235 176.304 144.16 176.344C145.629 176.445 146.515 176.002 147.319 174.694L147.923 173.728L147.843 156.203L147.36 155.297Z" fill="white"/>
<path fill-rule="evenodd" clip-rule="evenodd" d="M6.26921 0.56448C4.76013 0.987021 4.09614 1.36933 2.96936 2.4961C1.46028 4.00518 0.735924 5.73558 0.595077 8.10985C0.534714 9.15614 0.534714 53.0199 0.595077 105.596L0.694394 199.947C0.695242 200.753 0.874329 201.549 1.21883 202.277C1.94319 203.807 3.53275 205.497 4.96134 206.201C5.72817 206.598 6.57892 206.805 7.44225 206.805H162.38C163.233 206.805 164.075 206.612 164.843 206.241C167.077 205.135 168.767 202.921 169.209 200.467C169.35 199.722 169.39 167.488 169.37 102.779L169.311 7.69233C169.31 6.70878 169.09 5.73778 168.666 4.85025C167.881 3.18021 166.473 1.7315 164.883 0.946779C164.089 0.562738 163.218 0.363045 162.335 0.36259L85.5059 0.323038C18.4827 0.302917 7.17466 0.323028 6.26921 0.56448ZM153.127 53.2559L149.511 53.2614L136.817 53.2996C136.406 53.3008 136.027 53.0779 135.829 52.7181C134.782 50.867 133.696 49.4384 131.965 47.708C129.913 45.6758 128.022 44.4081 125.567 43.4222L125.377 43.3463L125.133 43.2495L124.932 43.1698C123.637 42.6567 123.171 42.472 123.007 42.1388C122.916 41.9512 122.92 41.7167 122.927 41.3501C122.929 41.2416 122.931 41.1215 122.931 40.9876C122.931 37.2451 120.879 32.8184 117.659 29.6192C115.225 27.2047 111.643 25.0115 108.504 24.0256C105.385 23.0396 103.353 22.7579 100.134 22.8585C95.3853 22.9994 92.4879 23.9652 90.1136 26.1785C88.3429 27.8284 87.357 29.7399 87.1558 31.8526C87.0753 32.6776 87.0552 53.1004 87.1156 77.2255L87.213 119.702C87.2151 120.62 87.3726 121.531 87.6789 122.397C88.2222 123.906 89.9727 126.643 90.9989 127.568C93.8762 130.184 97.1157 131.452 100.898 131.452C103.132 131.452 104.903 131.109 106.794 130.305L107.295 130.101C107.79 129.9 108.35 129.946 108.806 130.224C110.074 130.969 111.703 131.653 113.273 132.116C115.627 132.78 119.571 132.719 122.126 131.975C127.036 130.546 130.557 127.689 132.79 123.262L133.382 122.101C133.704 121.468 134.319 121.036 135.024 120.948C137.901 120.586 141.664 118.795 144.038 116.663C146.956 114.027 148.887 110.606 149.692 106.743C149.844 106.016 150.485 105.495 151.228 105.495H156.453C160.053 105.495 162.972 108.414 162.972 112.015V162.378H154.145L154.06 167.752V168.716H157.879C160.692 168.716 162.972 170.996 162.972 173.809V196.26C162.972 198.695 160.999 200.668 158.565 200.668H10.67C8.55066 200.668 6.8326 198.95 6.8326 196.83V168.577H16.691L16.6999 168.577C16.6608 167.989 16.622 167.614 16.5928 167.584V162.378H13.3116C9.73334 162.378 6.8326 159.477 6.8326 155.899V111.673C6.8326 108.268 9.60474 105.514 13.0098 105.536L17.3808 105.579C18.4339 105.589 19.3484 106.306 19.6095 107.326C20.9173 112.578 24.8409 117.367 29.6096 119.58C31.0181 120.224 33.6741 120.989 34.5393 120.989C35.3039 120.989 35.4246 121.109 36.0886 122.498C37.819 126.019 40.2335 128.695 43.1511 130.345C48.4228 133.303 55.2841 133.383 60.1332 130.546C61.0789 130.003 61.4411 129.862 61.6423 130.023C61.7832 130.144 62.6685 130.486 63.5941 130.808C65.1434 131.311 65.5458 131.351 68.3024 131.331C71.059 131.331 71.4413 131.291 72.8296 130.788C77.6184 129.037 80.9183 125.496 81.9847 120.888C82.2463 119.721 82.2865 114.349 82.2865 75.4146V32.6375C82.2865 31.7321 82.1299 30.8335 81.8237 29.9814C80.7975 27.1846 78.1617 24.7097 75.0429 23.6231C72.729 22.8384 67.3567 22.4762 65.1836 22.9793C64.9132 23.0442 64.4915 23.1382 64.0374 23.2393L64.0306 23.2409L64.0289 23.2413C63.6409 23.3277 63.2299 23.4193 62.8697 23.5024C58.3827 24.5487 54.7408 26.5608 51.5617 29.8003C48.4832 32.9392 46.7125 36.6817 46.3704 40.8266L46.3047 41.5879C46.259 42.1158 45.906 42.5669 45.4046 42.7381C43.9157 43.2009 41.3804 44.4283 40.0323 45.3337C38.0403 46.6818 35.6862 49.1969 34.3783 51.3901C33.6791 52.5638 32.4161 53.2854 31.05 53.2919L20.4948 53.3419C13.4725 53.362 7.53684 53.3419 7.29538 53.2815C7.02527 53.2228 6.8326 52.9837 6.8326 52.7073V16.2848C6.8326 10.8809 11.2133 6.50017 16.6172 6.50017H153.17C158.581 6.50017 162.964 10.8912 162.955 16.3016L162.896 43.4966C162.883 48.8848 158.515 53.2478 153.127 53.2559ZM75.4252 32.1142C74.721 30.6655 72.8699 29.6594 70.2139 29.2369C68.6847 28.9954 68.6243 28.9955 66.3708 29.3375C61.421 30.0417 57.5175 32.2551 54.942 35.7762C53.7951 37.3255 52.7086 39.9614 52.7086 41.1485C52.7086 41.732 52.7287 41.7321 53.775 40.5852C56.0285 38.1103 59.3083 36.5207 63.091 36.0579C65.5659 35.7561 67.4372 35.8768 68.1414 36.4C69.1072 37.1042 69.6103 38.0499 69.6103 39.0962C69.6103 40.8266 68.4432 41.7119 66.1494 41.7119C61.4612 41.732 58.0407 43.6838 55.2237 47.9494C54.4993 49.0561 53.8354 49.9816 53.7347 50.0621C53.6341 50.1225 52.9903 50.2432 52.3263 50.3237C50.9178 50.5249 50.3343 50.2835 49.4288 49.1366C49.1105 48.7325 48.5847 48.5528 48.0856 48.6776L47.9399 48.714C47.4167 48.8549 46.3302 49.2975 45.5254 49.6999C41.2396 51.8126 38.6238 55.8972 38.6238 60.5049C38.6238 63.342 39.6903 66.179 41.4408 67.9497C41.7592 68.2795 42.2774 68.3102 42.6325 68.0203L42.9901 67.7284C44.3382 66.6217 45.4046 66.34 46.6723 66.7626C47.8795 67.165 48.5033 67.9296 48.6441 69.2173C48.785 70.5051 48.3423 71.2294 46.7729 72.2556C44.64 73.6439 43.4529 75.7566 43.4529 78.1712C43.4529 79.2577 43.5937 79.6802 44.4589 81.4911C45.5656 83.7849 45.6461 84.1873 45.0626 85.0525C44.2175 86.3604 42.467 86.9238 41.2597 86.2799C39.9921 85.636 38.322 83.0606 37.7989 80.9479C37.4568 79.5394 37.4367 75.8975 37.7989 74.6902C37.9608 74.1171 37.806 73.5012 37.3924 73.0727L36.9337 72.5976L36.3752 72.0294C36.0495 71.6979 35.5173 71.6911 35.1831 72.0141C34.2375 72.8995 32.9095 74.6902 32.3058 75.8572C31.2998 77.8693 30.8974 80.4448 31.2595 82.7587C31.6821 85.4751 33.5332 88.4731 35.7868 90.1029C35.9814 90.2433 36.1618 90.373 36.3289 90.4931C37.8038 91.5537 38.2448 91.8707 38.3736 92.2849C38.4285 92.4615 38.4266 92.6558 38.4239 92.9329L38.423 93.0343C38.4228 93.0687 38.4226 93.1043 38.4226 93.1412C38.4226 94.5094 38.0605 95.3947 37.2355 96.099C36.6721 96.5617 36.3904 96.6422 35.3441 96.6422C33.7948 96.6422 32.8089 96.1794 31.4004 94.7911C30.8009 94.2138 29.8465 94.2334 29.2712 94.8348L28.9859 95.1332C26.6116 97.6483 25.6659 99.9823 25.686 103.282C25.686 105.073 25.7866 105.636 26.2494 106.904C28.1207 111.995 32.2052 114.791 38.5434 115.355C38.678 115.366 38.8102 115.378 38.9386 115.39C40.1218 115.498 40.9487 116.21 41.2195 117.367C41.8432 119.882 42.7084 121.451 44.3583 123.101C46.5515 125.295 48.7045 126.22 51.622 126.22C53.3122 126.22 55.9279 125.576 55.9279 125.154C55.9279 125.053 55.5658 124.49 55.1231 123.906C54.6804 123.343 53.9561 122.095 53.5134 121.15C53.0196 120.088 51.9715 119.393 50.8013 119.352L50.4148 119.339C48.2015 119.278 48.0807 119.258 47.3564 118.675C46.3503 117.85 45.9077 116.663 46.2296 115.616C46.3503 115.194 46.6723 114.59 46.954 114.248C47.4167 113.665 47.457 113.644 49.8916 113.544L50.9297 113.502C51.7931 113.467 52.5432 112.897 52.8092 112.075C53.6945 109.459 54.7207 108.514 56.6724 108.514C59.1674 108.514 60.254 110.888 58.9863 113.524C57.8394 115.878 58.8857 119.238 61.6222 122.055C63.755 124.268 66.9543 125.355 69.6505 124.812C72.2662 124.288 74.1978 122.82 75.2039 120.626C75.6264 119.681 75.7069 119.198 75.727 117.488L75.7381 116.372C75.7433 115.846 75.3616 115.395 74.8417 115.315C74.3387 115.254 72.568 115.174 70.898 115.174C68.081 115.154 67.7994 115.113 67.1756 114.691C66.7732 114.409 66.3506 113.886 66.1092 113.302C65.6062 112.075 65.7872 111.069 66.6927 110.204C67.5177 109.439 68.2823 109.318 72.5479 109.318H74.5105C75.1261 109.318 75.6464 108.862 75.727 108.252C75.888 106.904 75.888 103.403 75.727 103C75.6667 102.819 75.4655 102.679 75.3045 102.679C73.7149 102.679 72.4876 100.083 73.3326 98.4531C73.6546 97.8092 74.6405 97.0446 75.1234 97.0446C75.727 97.0446 75.8679 96.3002 75.8075 93.3826C75.7737 91.7721 74.4805 90.4723 72.8702 90.4304L68.9252 90.3281C68.3325 90.3127 67.7694 90.0657 67.3567 89.6401C66.7329 89.0365 66.6927 88.8956 66.6927 87.6079C66.6927 86.5012 66.7732 86.1391 67.0951 85.7769C67.9804 84.8111 68.5036 84.6904 72.226 84.5696L72.5291 84.561C74.3211 84.5098 75.7472 83.0424 75.7472 81.2497V79.0636C75.7472 78.4744 75.3062 77.9784 74.721 77.9096C72.9101 77.6883 71.7632 76.5413 71.7632 74.9719C71.7632 73.4628 73.1717 72.0946 74.7411 72.0946C75.3448 72.0946 75.6466 71.994 75.727 71.7727C75.9081 71.2898 75.8679 66.8028 75.6667 66.501C75.546 66.2796 74.8216 66.2394 72.3668 66.2998C69.6706 66.3601 69.1676 66.4205 68.8658 66.7223C68.5438 67.0442 68.4835 67.6076 68.403 71.491C68.3024 75.5554 68.2621 75.9377 67.8798 76.4609C66.7329 78.0102 65.7068 78.2114 58.9461 78.0907C54.8816 78.0303 54.5798 78.0102 53.9963 77.5877C52.608 76.5816 52.3866 74.7305 53.5134 73.4427C54.3585 72.4769 55.2237 72.2958 58.9059 72.2958C61.9039 72.2958 62.1655 72.2757 62.3667 71.9135C62.4673 71.6922 62.5679 70.2636 62.5679 68.7143C62.5679 66.5211 62.6484 65.676 62.9502 64.7907C63.5739 62.8591 64.7007 61.511 66.4714 60.5653C67.236 60.1629 67.6183 60.1226 71.4614 60.0623C75.5258 60.0019 75.6063 59.9818 75.727 59.5592C75.7874 59.3178 75.8478 57.9294 75.8478 56.4606C75.8478 54.9902 74.6623 53.7947 73.1919 53.7823L68.6646 53.7443C61.924 53.6839 61.421 53.6638 60.8174 53.2815C59.0266 52.2151 59.2278 49.5994 61.1795 48.4525C61.7832 48.0903 62.3667 48.05 68.7853 47.9494C72.6554 47.8935 75.7723 44.7568 75.8038 40.8864L75.8075 40.4242C75.8478 33.2209 75.8478 32.9794 75.4252 32.1142ZM107.84 30.6454C107.237 30.3838 106.11 30.0216 105.325 29.8003C103.937 29.4381 99.49 29.1363 98.3833 29.3576C97.1962 29.5991 95.828 30.1222 95.164 30.6051C95.0976 30.6545 95.0337 30.7017 94.9721 30.7472C94.5621 31.05 94.2547 31.2771 94.025 31.566C93.3365 32.4319 93.3467 33.8533 93.3876 39.5355L93.3933 40.3437L93.3978 40.9065C93.4289 44.7657 96.5366 47.8935 100.395 47.9494C106.351 48.0299 107.418 48.0903 107.941 48.3921C110.496 49.7804 110.275 52.9998 107.599 53.5632C107.015 53.704 103.876 53.7845 99.9729 53.7845H96.3919C94.7124 53.7845 93.3602 55.1636 93.3933 56.8429C93.4271 58.564 94.8109 59.953 96.532 59.993L97.7797 60.022C102.566 60.1427 102.589 60.1628 104.276 61.6492L104.279 61.6518C106.07 63.2011 106.834 65.5754 106.814 69.3783C106.794 70.3642 106.794 71.4507 106.814 71.7526C106.825 72.0761 107.094 72.3305 107.418 72.3236L110.617 72.2556C114.118 72.1952 114.42 72.2153 115.084 72.6178C116.13 73.2214 116.693 74.1872 116.693 75.3341C116.693 76.1792 116.593 76.4005 115.949 77.1047C115.225 77.8492 115.104 77.8895 113.635 78.0303C112.79 78.1108 110.074 78.1309 107.599 78.0907C102.569 78.0102 102.206 77.9297 101.341 76.5212C100.939 75.8774 100.898 75.4951 100.798 71.4306C100.79 71.0573 100.784 70.7106 100.778 70.3887C100.738 68.1314 100.72 67.0909 100.193 66.6239C99.743 66.2246 98.9207 66.2447 97.3953 66.2819L97.3932 66.282L97.388 66.2821L97.383 66.2822C97.138 66.2882 96.875 66.2946 96.5926 66.2998L96.2701 66.306C94.706 66.3361 93.4537 67.6126 93.4537 69.1771V71.1204C93.4537 71.6213 93.8228 72.0455 94.3189 72.1147C96.0091 72.3361 97.0956 74.1067 96.5724 75.7365C96.2505 76.7023 95.1036 77.7285 94.3591 77.7285C93.4336 77.7285 93.3531 77.9901 93.3531 81.3905C93.3531 83.1463 94.7764 84.5696 96.5322 84.5696H96.8743C100.033 84.5696 100.496 84.6099 101.22 84.972C102.408 85.5757 102.85 86.4208 102.75 87.8494C102.689 88.8353 102.589 89.117 102.045 89.6602C101.632 90.0736 101.076 90.3123 100.491 90.3271L96.5117 90.4277C94.8009 90.4711 93.4271 91.8527 93.3933 93.5637L93.3529 95.625C93.3408 96.2425 93.6966 96.8083 94.2585 97.0648C95.4658 97.6282 95.9688 98.4732 95.9688 99.922C95.9688 101.25 95.3853 102.095 94.2585 102.477C93.8159 102.618 93.514 102.88 93.4537 103.141C93.3933 103.383 93.3732 104.852 93.3933 106.401C93.4271 107.978 94.6938 109.25 96.2703 109.29L97.3773 109.318C101.683 109.419 102.106 109.54 102.729 110.747C103.132 111.552 103.092 113.121 102.629 113.805C101.844 115.013 101.381 115.133 97.2364 115.194L95.2855 115.225C94.2596 115.241 93.4271 116.06 93.3933 117.085C93.3128 119.439 93.7756 120.727 95.2042 122.296C97.1157 124.389 99.1278 125.154 101.804 124.791C103.575 124.57 104.44 124.228 106.231 123.101C108.504 121.653 109.973 119.5 110.557 116.743C110.765 115.793 110.638 114.8 110.198 113.933L110.154 113.846C109.329 112.176 109.229 110.908 109.832 109.902C110.436 108.916 111.2 108.514 112.488 108.514C114.42 108.514 115.647 109.761 116.311 112.417C116.573 113.503 116.593 113.504 119.244 113.584L119.249 113.584C120.979 113.644 121.14 113.685 121.704 114.228C122.871 115.335 122.891 117.045 121.784 118.212C120.899 119.137 120.557 119.258 118.424 119.379C116.935 119.459 116.392 119.56 116.271 119.781C116.234 119.856 116.148 120.044 116.038 120.288L116.037 120.29L116.036 120.292C115.909 120.572 115.748 120.927 115.587 121.27C115.064 122.457 114.279 123.685 113.494 124.59C113.273 124.852 113.132 125.134 113.172 125.214C113.615 125.938 118.142 126.482 119.852 126.019C122.428 125.335 125.144 123.383 126.533 121.21C127.177 120.204 128.022 118.011 128.263 116.703C128.344 116.28 128.565 115.878 128.746 115.777C128.927 115.677 129.792 115.536 130.678 115.455C137.237 114.852 142.106 111.17 143.334 105.838C144.239 101.934 143.092 97.9501 140.255 95.1533L140.045 94.9462C139.369 94.28 138.294 94.2474 137.579 94.8716C135.949 96.3002 135.265 96.6422 133.998 96.6422C133.092 96.6422 132.891 96.5617 132.146 95.8776C131.462 95.2338 131.281 94.8917 131.08 93.9259C130.738 92.1552 130.839 91.9138 132.388 90.8876C134.239 89.6602 136.211 87.5475 136.955 85.958C137.821 84.1068 138.102 82.7386 138.102 80.4448C138.082 78.7345 138.002 78.2315 137.519 77.0243C137.197 76.2395 136.674 75.1932 136.312 74.6701C135.567 73.5433 133.656 71.491 133.374 71.491C133.253 71.491 132.73 71.9538 132.187 72.497C131.559 73.1378 131.294 74.0543 131.482 74.9317C132.066 77.7084 131.784 80.2436 130.597 82.8392C129.591 85.0324 127.841 86.5817 126.392 86.5817C125.064 86.5817 123.615 84.9117 123.836 83.6239C123.897 83.2819 124.259 82.477 124.641 81.8533C126.432 78.8553 125.849 74.9719 123.253 72.819C120.959 70.9276 120.718 70.6258 120.718 69.5795C120.718 68.3119 121.281 67.4265 122.428 66.8833C122.931 66.6418 123.454 66.4607 123.635 66.4607C124.319 66.4607 126.171 67.3259 126.633 67.8893C127.056 68.3924 127.197 68.4527 127.519 68.2515C128.142 67.8692 129.531 65.8169 130.114 64.4486C130.637 63.2213 130.657 62.9396 130.678 60.2232C130.678 57.366 130.657 57.2856 130.054 55.9978C128.384 52.4968 125.245 49.8609 121.523 48.8146L121.045 48.6838C120.575 48.5547 120.072 48.7073 119.752 49.0762C118.746 50.2231 118.263 50.4042 116.854 50.2633C116.15 50.1829 115.446 50.0219 115.265 49.9012C115.104 49.7603 114.44 48.875 113.816 47.9092C112.307 45.6154 110.275 43.7441 108.142 42.6978C106.532 41.893 106.432 41.8729 103.715 41.732L101.969 41.6428C101.321 41.6097 100.713 41.3238 100.275 40.8467C99.6912 40.2028 99.5906 39.9614 99.5906 39.0761C99.5906 37.8085 100.234 36.8225 101.381 36.3195C102.428 35.8768 106.492 35.897 108.243 36.3799C110.718 37.0438 113.454 38.5328 115.144 40.1022C116.512 41.3698 116.693 41.4906 116.693 41.068C116.693 40.404 115.969 38.4322 115.225 36.9835C114.017 34.7299 110.516 31.7118 107.84 30.6454ZM30.4346 59.4133L25.2031 59.3983C24.4274 59.3942 23.5795 59.3902 22.6947 59.386L22.6377 59.3857L22.6123 59.3856L22.5949 59.3855L22.5907 59.3855L22.5842 59.3854H22.5831L22.5762 59.3854C19.0817 59.3688 15.0398 59.3496 12.6073 59.3178C8.44228 59.2574 6.99357 59.2977 6.91308 59.4788C6.87284 59.6196 6.85272 68.6338 6.87284 79.5394L6.91421 93.1208C6.92474 96.5786 9.71308 99.3855 13.1707 99.4189L18.1035 99.4507C18.8778 99.4557 19.5637 98.952 19.7906 98.2117C20.6558 95.274 22.2654 92.6784 24.7001 90.3041C25.4848 89.5194 26.1488 88.7749 26.1488 88.6341C26.1488 88.5133 25.8872 87.6079 25.5452 86.6421C24.519 83.5636 24.358 80.3241 25.0623 76.9035C25.7464 73.4629 27.175 71.0483 30.3139 67.9296L31.6053 66.6496C32.2229 66.0374 32.5128 65.1681 32.3863 64.3078C32.2857 63.5633 32.1851 62.1549 32.1851 61.1689C32.1851 60.2013 31.4022 59.4161 30.4346 59.4133ZM144.34 90.0224C146.774 92.2961 148.465 94.8917 149.41 97.8092C149.434 97.8836 149.446 97.942 149.458 98.0013L149.464 98.0299L149.47 98.0611L149.475 98.0846L149.478 98.0973C149.622 98.7002 150.082 99.2184 150.692 99.3278C151.467 99.4667 152.853 99.4537 155.477 99.4291L155.811 99.4259L156.176 99.4226L156.2 99.4224L156.225 99.4221L156.594 99.4189C160.07 99.3855 162.871 96.5575 162.871 93.0805V69.1024C162.871 63.6985 158.491 59.3178 153.087 59.3178H150.135C144.797 59.3178 140.191 59.341 138.263 59.3699C137.618 59.3795 137.239 59.7175 137.223 60.3617C137.219 60.5325 137.217 60.7169 137.217 60.9073C137.197 62.4365 136.935 64.7303 136.714 65.2937C136.613 65.5553 136.835 65.8772 137.559 66.501C140.617 69.1771 142.408 71.5916 143.535 74.5695C144.461 77.0041 144.662 78.1712 144.682 80.7265C144.682 83.4429 144.118 86.1391 143.133 88.0304C143.042 88.2063 142.978 88.3291 142.975 88.4534C142.968 88.7418 143.285 89.0383 144.34 90.0224Z" fill="white"/>
<path d="M153.669 162.378C151.919 162.378 150.5 163.796 150.5 165.547V165.547C150.5 167.297 151.919 168.716 153.669 168.716H154.06V167.752L154.145 162.378H153.669Z" fill="white"/>
</svg>
